<svg width="451" height="372" viewBox="0 0 451 372" fill="none" xmlns="http://www.w3.org/2000/svg">
<rect x="0.75" y="0.960388" width="450" height="454.144" rx="16.5746" fill="white"/>
<rect x="14.424" y="17.535" width="422.652" height="70.442" rx="8.28729" fill="#F6F7F9"/>
<rect x="24.0002" y="23.7423" width="188" height="58" rx="8.28729" fill="white"/>
<path d="M78.1272 58.3418C77.9697 58.3418 77.8122 58.2838 77.6879 58.1594C77.4476 57.9191 77.4476 57.5213 77.6879 57.281L89.2901 45.6788C89.5305 45.4385 89.9283 45.4385 90.1686 45.6788C90.4089 45.9191 90.4089 46.3169 90.1686 46.5572L78.5664 58.1594C78.4421 58.2838 78.2846 58.3418 78.1272 58.3418Z" fill="#292D32"/>
<path d="M86.6383 58.3418H78.1272C77.7874 58.3418 77.5057 58.06 77.5057 57.7202V49.2092C77.5057 48.8694 77.7874 48.5876 78.1272 48.5876C78.467 48.5876 78.7488 48.8694 78.7488 49.2092V57.0987H86.6383C86.9781 57.0987 87.2598 57.3805 87.2598 57.7202C87.2598 58.06 86.9781 58.3418 86.6383 58.3418Z" fill="#292D32"/>
<path d="M90.9725 62.071H76.8841C76.5443 62.071 76.2626 61.7893 76.2626 61.4495C76.2626 61.1097 76.5443 60.8279 76.8841 60.8279H90.9725C91.3123 60.8279 91.5941 61.1097 91.5941 61.4495C91.5941 61.7893 91.3123 62.071 90.9725 62.071Z" fill="#292D32"/>
<path d="M105.144 59.6622V47.7285H107.398V59.6622H105.144ZM115.402 59.6622V55.4357C115.402 55.2313 115.391 54.9716 115.369 54.6567C115.347 54.3363 115.277 54.0158 115.161 53.6954C115.045 53.3749 114.855 53.107 114.59 52.8915C114.33 52.676 113.96 52.5683 113.479 52.5683C113.286 52.5683 113.079 52.5987 112.858 52.6595C112.637 52.7202 112.429 52.839 112.236 53.0158C112.043 53.1871 111.882 53.4412 111.755 53.7783C111.634 54.1153 111.573 54.5628 111.573 55.1208L110.28 54.5075C110.28 53.8004 110.424 53.1374 110.711 52.5186C110.998 51.8998 111.429 51.3998 112.004 51.0186C112.584 50.6374 113.313 50.4468 114.192 50.4468C114.893 50.4468 115.465 50.5655 115.907 50.8031C116.349 51.0407 116.692 51.3418 116.935 51.7064C117.184 52.0711 117.36 52.4523 117.465 52.8501C117.57 53.2423 117.634 53.6015 117.656 53.9274C117.678 54.2534 117.689 54.491 117.689 54.6401V59.6622H115.402ZM109.286 59.6622V50.712H111.291V53.6788H111.573V59.6622H109.286ZM123.042 59.9109C122.114 59.9109 121.318 59.7037 120.656 59.2893C119.993 58.8749 119.484 58.3114 119.131 57.5987C118.777 56.886 118.6 56.0821 118.6 55.1871C118.6 54.281 118.783 53.4716 119.147 52.7589C119.517 52.0462 120.037 51.4854 120.705 51.0766C121.374 50.6678 122.164 50.4633 123.075 50.4633C124.131 50.4633 125.015 50.7313 125.727 51.2672C126.446 51.7976 126.904 52.5241 127.103 53.4468L124.849 54.0434C124.716 53.5794 124.484 53.2175 124.153 52.9578C123.827 52.6981 123.457 52.5683 123.042 52.5683C122.567 52.5683 122.178 52.6843 121.874 52.9164C121.57 53.1429 121.346 53.455 121.202 53.8528C121.059 54.2451 120.987 54.6899 120.987 55.1871C120.987 55.9661 121.158 56.5987 121.501 57.0849C121.849 57.5655 122.363 57.8059 123.042 57.8059C123.551 57.8059 123.937 57.6899 124.202 57.4578C124.468 57.2258 124.667 56.8943 124.799 56.4633L127.103 56.944C126.849 57.8943 126.368 58.6263 125.661 59.1401C124.954 59.6539 124.081 59.9109 123.042 59.9109ZM131.965 59.9109C131.065 59.9109 130.275 59.7092 129.595 59.3059C128.916 58.9026 128.385 58.3473 128.004 57.6401C127.628 56.9274 127.44 56.1097 127.44 55.1871C127.44 54.2534 127.634 53.4329 128.021 52.7258C128.407 52.0131 128.94 51.4578 129.62 51.06C130.3 50.6622 131.081 50.4633 131.965 50.4633C132.866 50.4633 133.656 50.665 134.336 51.0683C135.021 51.4716 135.554 52.0296 135.935 52.7423C136.316 53.4495 136.507 54.2644 136.507 55.1871C136.507 56.1153 136.313 56.9357 135.927 57.6484C135.545 58.3556 135.012 58.9109 134.327 59.3142C133.648 59.712 132.86 59.9109 131.965 59.9109ZM131.965 57.8059C132.689 57.8059 133.228 57.5628 133.581 57.0766C133.94 56.5849 134.12 55.955 134.12 55.1871C134.12 54.3915 133.938 53.7562 133.573 53.281C133.214 52.8059 132.678 52.5683 131.965 52.5683C131.474 52.5683 131.07 52.6788 130.755 52.8998C130.44 53.1208 130.206 53.4274 130.051 53.8197C129.902 54.212 129.827 54.6678 129.827 55.1871C129.827 55.9882 130.007 56.6263 130.366 57.1015C130.731 57.5711 131.264 57.8059 131.965 57.8059ZM148.523 59.6622V54.3749C148.523 53.7838 148.382 53.3252 148.1 52.9992C147.824 52.6678 147.44 52.502 146.948 52.502C146.633 52.502 146.36 52.5766 146.128 52.7258C145.896 52.8694 145.713 53.0738 145.581 53.339C145.454 53.5987 145.39 53.8998 145.39 54.2423L144.445 53.6125C144.445 52.9992 144.589 52.4578 144.876 51.9882C145.169 51.5186 145.558 51.1539 146.045 50.8943C146.536 50.6291 147.081 50.4965 147.677 50.4965C148.699 50.4965 149.47 50.8004 149.989 51.4081C150.514 52.0103 150.777 52.8004 150.777 53.7783V59.6622H148.523ZM137.733 59.6622V50.712H139.721V53.6788H140.003V59.6622H137.733ZM143.136 59.6622V54.3749C143.136 53.7838 142.995 53.3252 142.713 52.9992C142.437 52.6678 142.053 52.502 141.561 52.502C141.092 52.502 140.713 52.665 140.426 52.991C140.144 53.3114 140.003 53.7285 140.003 54.2423L139.058 53.5794C139.058 52.9937 139.205 52.4689 139.498 52.0048C139.791 51.5407 140.183 51.1733 140.675 50.9026C141.172 50.6318 141.727 50.4965 142.34 50.4965C143.042 50.4965 143.616 50.6457 144.064 50.944C144.517 51.2423 144.851 51.6401 145.067 52.1374C145.282 52.6346 145.39 53.1816 145.39 53.7783V59.6622H143.136ZM156.35 59.9109C155.433 59.9109 154.623 59.7147 153.922 59.3225C153.226 58.9247 152.679 58.3805 152.281 57.6899C151.889 56.9937 151.692 56.1981 151.692 55.3031C151.692 54.3252 151.886 53.4744 152.273 52.7506C152.659 52.0269 153.192 51.4661 153.872 51.0683C154.552 50.665 155.333 50.4633 156.217 50.4633C157.157 50.4633 157.955 50.6843 158.612 51.1263C159.27 51.5683 159.756 52.1899 160.071 52.991C160.386 53.7921 160.496 54.7341 160.402 55.8169H158.173V54.9882C158.173 54.0766 158.027 53.4219 157.734 53.0241C157.447 52.6208 156.974 52.4191 156.317 52.4191C155.549 52.4191 154.983 52.6539 154.618 53.1236C154.259 53.5876 154.079 54.2755 154.079 55.1871C154.079 56.0213 154.259 56.6678 154.618 57.1263C154.983 57.5794 155.516 57.8059 156.217 57.8059C156.659 57.8059 157.038 57.7092 157.353 57.5158C157.668 57.3225 157.908 57.0434 158.074 56.6788L160.328 57.3252C159.991 58.1429 159.458 58.7783 158.728 59.2313C158.005 59.6843 157.212 59.9109 156.35 59.9109ZM153.383 55.8169V54.1429H159.317V55.8169H153.383Z" fill="#0E0C21"/>
<path d="M262.921 61.6648H277.01C277.35 61.6648 277.631 61.383 277.631 61.0432C277.631 60.7035 277.35 60.4217 277.01 60.4217H262.921C262.582 60.4217 262.3 60.7035 262.3 61.0432C262.3 61.383 262.582 61.6648 262.921 61.6648Z" fill="#979797"/>
<path d="M264.165 57.9355C264.322 57.9355 264.479 57.8775 264.604 57.7532L276.206 46.151C276.446 45.9107 276.446 45.5129 276.206 45.2725C275.966 45.0322 275.568 45.0322 275.328 45.2725L263.725 56.8747C263.485 57.1151 263.485 57.5129 263.725 57.7532C263.85 57.8775 264.007 57.9355 264.165 57.9355Z" fill="#979797"/>
<path d="M275.767 54.8444C276.106 54.8444 276.388 54.5626 276.388 54.2228V45.7118C276.388 45.372 276.106 45.0902 275.767 45.0902H267.256C266.916 45.0902 266.634 45.372 266.634 45.7118C266.634 46.0515 266.916 46.3333 267.256 46.3333H275.145V54.2228C275.145 54.5626 275.427 54.8444 275.767 54.8444Z" fill="#979797"/>
<path d="M291.015 59.256V47.3223H298.805V49.4273H293.269V51.9797H297.811V54.0847H293.269V57.151H298.805V59.256H291.015ZM299.217 59.256L302.416 54.7311L299.283 50.3057H301.935L303.725 52.9576L305.482 50.3057H308.134L305.002 54.7311L308.217 59.256H305.565L303.725 56.5046L301.869 59.256H299.217ZM313.363 59.5046C312.473 59.5046 311.73 59.2974 311.134 58.8831C310.537 58.4687 310.087 57.9052 309.783 57.1924C309.485 56.4797 309.335 55.6759 309.335 54.7808C309.335 53.8858 309.485 53.0819 309.783 52.3692C310.081 51.6565 310.52 51.093 311.101 50.6786C311.681 50.2643 312.396 50.0571 313.247 50.0571C314.103 50.0571 314.849 50.2615 315.485 50.6703C316.12 51.0792 316.612 51.64 316.96 52.3527C317.313 53.0598 317.49 53.8692 317.49 54.7808C317.49 55.6759 317.316 56.4797 316.968 57.1924C316.625 57.9052 316.145 58.4687 315.526 58.8831C314.907 59.2974 314.186 59.5046 313.363 59.5046ZM308.954 63.2339V50.3057H310.943V56.4383H311.225V63.2339H308.954ZM312.998 57.4991C313.485 57.4991 313.882 57.3775 314.192 57.1344C314.501 56.8913 314.73 56.5654 314.88 56.1565C315.029 55.7422 315.103 55.2836 315.103 54.7808C315.103 54.2836 315.026 53.8306 314.871 53.4217C314.717 53.0074 314.476 52.6786 314.15 52.4355C313.83 52.1869 313.418 52.0626 312.915 52.0626C312.446 52.0626 312.065 52.1759 311.772 52.4024C311.485 52.6289 311.275 52.9466 311.142 53.3554C311.009 53.7643 310.943 54.2394 310.943 54.7808C310.943 55.3223 311.009 55.7974 311.142 56.2063C311.275 56.6151 311.49 56.9328 311.788 57.1593C312.092 57.3858 312.496 57.4991 312.998 57.4991ZM322.894 59.5046C321.977 59.5046 321.167 59.3085 320.466 58.9162C319.769 58.5184 319.222 57.9742 318.825 57.2836C318.432 56.5875 318.236 55.7919 318.236 54.8969C318.236 53.919 318.43 53.0681 318.816 52.3444C319.203 51.6206 319.736 51.0598 320.416 50.6621C321.095 50.2587 321.877 50.0571 322.761 50.0571C323.7 50.0571 324.499 50.2781 325.156 50.7201C325.814 51.1621 326.3 51.7836 326.615 52.5847C326.93 53.3858 327.04 54.3278 326.946 55.4107H324.717V54.5819C324.717 53.6703 324.571 53.0156 324.278 52.6179C323.99 52.2145 323.518 52.0129 322.861 52.0129C322.093 52.0129 321.526 52.2477 321.162 52.7173C320.803 53.1814 320.623 53.8692 320.623 54.7808C320.623 55.6151 320.803 56.2615 321.162 56.7201C321.526 57.1731 322.06 57.3996 322.761 57.3996C323.203 57.3996 323.582 57.3029 323.897 57.1096C324.211 56.9162 324.452 56.6372 324.618 56.2726L326.872 56.919C326.535 57.7366 326.001 58.372 325.272 58.825C324.548 59.2781 323.756 59.5046 322.894 59.5046ZM319.927 55.4107V53.7366H325.861V55.4107H319.927ZM334.094 59.256V55.0295C334.094 54.825 334.083 54.5654 334.061 54.2505C334.039 53.93 333.97 53.6096 333.854 53.2891C333.738 52.9687 333.547 52.7007 333.282 52.4853C333.022 52.2698 332.652 52.1621 332.171 52.1621C331.978 52.1621 331.771 52.1924 331.55 52.2532C331.329 52.314 331.122 52.4328 330.928 52.6096C330.735 52.7808 330.575 53.035 330.448 53.372C330.326 53.709 330.265 54.1565 330.265 54.7145L328.972 54.1013C328.972 53.3941 329.116 52.7311 329.403 52.1123C329.691 51.4936 330.122 50.9936 330.696 50.6123C331.276 50.2311 332.006 50.0405 332.884 50.0405C333.586 50.0405 334.158 50.1593 334.6 50.3969C335.042 50.6344 335.384 50.9355 335.627 51.3002C335.876 51.6648 336.053 52.046 336.158 52.4438C336.263 52.8361 336.326 53.1952 336.348 53.5212C336.37 53.8471 336.381 54.0847 336.381 54.2339V59.256H334.094ZM327.978 59.256V50.3057H329.984V53.2726H330.265V59.256H327.978ZM341.449 59.5046C340.322 59.5046 339.41 59.2505 338.714 58.7422C338.023 58.2284 337.604 57.5046 337.454 56.5709L339.758 56.2228C339.852 56.6427 340.059 56.9715 340.38 57.209C340.706 57.4466 341.117 57.5654 341.615 57.5654C342.023 57.5654 342.338 57.488 342.559 57.3333C342.78 57.1731 342.891 56.9521 342.891 56.6703C342.891 56.4936 342.847 56.3527 342.758 56.2477C342.67 56.1372 342.471 56.0295 342.162 55.9245C341.858 55.8195 341.383 55.6814 340.736 55.5101C340.007 55.3223 339.424 55.1123 338.988 54.8803C338.551 54.6482 338.236 54.372 338.043 54.0516C337.849 53.7256 337.753 53.3333 337.753 52.8748C337.753 52.3002 337.899 51.8029 338.192 51.3831C338.485 50.9576 338.896 50.6317 339.427 50.4052C339.963 50.1731 340.593 50.0571 341.316 50.0571C342.018 50.0571 342.639 50.1648 343.181 50.3803C343.722 50.5958 344.159 50.9024 344.49 51.3002C344.827 51.698 345.035 52.1676 345.112 52.709L342.808 53.1234C342.769 52.7919 342.626 52.5295 342.377 52.3361C342.128 52.1427 341.791 52.0295 341.366 51.9963C340.952 51.9687 340.617 52.0239 340.363 52.1621C340.115 52.3002 339.99 52.4991 339.99 52.7587C339.99 52.9134 340.043 53.0433 340.148 53.1482C340.258 53.2532 340.482 53.361 340.819 53.4715C341.162 53.5819 341.681 53.7256 342.377 53.9024C343.057 54.0792 343.601 54.2864 344.01 54.5239C344.424 54.756 344.725 55.0377 344.913 55.3692C345.101 55.6952 345.195 56.0902 345.195 56.5543C345.195 57.4715 344.863 58.1924 344.2 58.7173C343.537 59.2422 342.62 59.5046 341.449 59.5046ZM350.596 59.5046C349.679 59.5046 348.869 59.3085 348.168 58.9162C347.472 58.5184 346.925 57.9742 346.527 57.2836C346.135 56.5875 345.939 55.7919 345.939 54.8969C345.939 53.919 346.132 53.0681 346.519 52.3444C346.905 51.6206 347.439 51.0598 348.118 50.6621C348.798 50.2587 349.579 50.0571 350.463 50.0571C351.403 50.0571 352.201 50.2781 352.858 50.7201C353.516 51.1621 354.002 51.7836 354.317 52.5847C354.632 53.3858 354.742 54.3278 354.648 55.4107H352.419V54.5819C352.419 53.6703 352.273 53.0156 351.98 52.6179C351.693 52.2145 351.22 52.0129 350.563 52.0129C349.795 52.0129 349.229 52.2477 348.864 52.7173C348.505 53.1814 348.325 53.8692 348.325 54.7808C348.325 55.6151 348.505 56.2615 348.864 56.7201C349.229 57.1731 349.762 57.3996 350.463 57.3996C350.905 57.3996 351.284 57.3029 351.599 57.1096C351.914 56.9162 352.154 56.6372 352.32 56.2726L354.574 56.919C354.237 57.7366 353.704 58.372 352.974 58.825C352.251 59.2781 351.458 59.5046 350.596 59.5046ZM347.629 55.4107V53.7366H353.563V55.4107H347.629ZM359.437 59.5046C358.31 59.5046 357.398 59.2505 356.702 58.7422C356.011 58.2284 355.592 57.5046 355.442 56.5709L357.746 56.2228C357.84 56.6427 358.047 56.9715 358.368 57.209C358.694 57.4466 359.105 57.5654 359.603 57.5654C360.011 57.5654 360.326 57.488 360.547 57.3333C360.768 57.1731 360.879 56.9521 360.879 56.6703C360.879 56.4936 360.835 56.3527 360.746 56.2477C360.658 56.1372 360.459 56.0295 360.15 55.9245C359.846 55.8195 359.371 55.6814 358.724 55.5101C357.995 55.3223 357.412 55.1123 356.976 54.8803C356.539 54.6482 356.224 54.372 356.031 54.0516C355.837 53.7256 355.741 53.3333 355.741 52.8748C355.741 52.3002 355.887 51.8029 356.18 51.3831C356.473 50.9576 356.884 50.6317 357.415 50.4052C357.951 50.1731 358.58 50.0571 359.304 50.0571C360.006 50.0571 360.627 50.1648 361.169 50.3803C361.71 50.5958 362.147 50.9024 362.478 51.3002C362.815 51.698 363.022 52.1676 363.1 52.709L360.796 53.1234C360.757 52.7919 360.614 52.5295 360.365 52.3361C360.116 52.1427 359.779 52.0295 359.354 51.9963C358.94 51.9687 358.605 52.0239 358.351 52.1621C358.103 52.3002 357.978 52.4991 357.978 52.7587C357.978 52.9134 358.031 53.0433 358.136 53.1482C358.246 53.2532 358.47 53.361 358.807 53.4715C359.15 53.5819 359.669 53.7256 360.365 53.9024C361.045 54.0792 361.589 54.2864 361.998 54.5239C362.412 54.756 362.713 55.0377 362.901 55.3692C363.089 55.6952 363.183 56.0902 363.183 56.5543C363.183 57.4715 362.851 58.1924 362.188 58.7173C361.525 59.2422 360.608 59.5046 359.437 59.5046Z" fill="#979797"/>
<g filter="url(#filter0_d_168_7648)">
<rect x="14.424" y="87.9769" width="422.652" height="318.204" rx="16.5746" fill="white"/>
</g>
<path d="M136.796 370.772V370.03L139.581 366.981C139.908 366.624 140.177 366.314 140.388 366.05C140.6 365.784 140.756 365.534 140.858 365.3C140.962 365.064 141.014 364.817 141.014 364.559C141.014 364.262 140.943 364.005 140.8 363.788C140.66 363.571 140.468 363.404 140.223 363.286C139.979 363.167 139.704 363.108 139.399 363.108C139.075 363.108 138.792 363.176 138.551 363.31C138.312 363.442 138.126 363.628 137.994 363.867C137.865 364.105 137.801 364.386 137.801 364.707H136.828C136.828 364.213 136.942 363.779 137.17 363.405C137.398 363.032 137.709 362.74 138.102 362.532C138.497 362.323 138.941 362.218 139.432 362.218C139.927 362.218 140.365 362.323 140.747 362.532C141.128 362.74 141.428 363.022 141.645 363.376C141.862 363.731 141.97 364.125 141.97 364.559C141.97 364.869 141.914 365.173 141.801 365.469C141.692 365.763 141.499 366.091 141.225 366.454C140.953 366.814 140.575 367.253 140.092 367.772L138.196 369.799V369.865H142.119V370.772H136.796ZM146.573 370.887C145.952 370.887 145.423 370.718 144.986 370.38C144.55 370.04 144.216 369.547 143.985 368.901C143.754 368.253 143.639 367.47 143.639 366.553C143.639 365.641 143.754 364.862 143.985 364.217C144.219 363.569 144.554 363.074 144.99 362.733C145.43 362.39 145.957 362.218 146.573 362.218C147.188 362.218 147.714 362.39 148.151 362.733C148.59 363.074 148.925 363.569 149.156 364.217C149.389 364.862 149.506 365.641 149.506 366.553C149.506 367.47 149.391 368.253 149.16 368.901C148.929 369.547 148.595 370.04 148.159 370.38C147.722 370.718 147.193 370.887 146.573 370.887ZM146.573 369.981C147.188 369.981 147.666 369.684 148.006 369.091C148.347 368.498 148.517 367.652 148.517 366.553C148.517 365.822 148.439 365.2 148.282 364.686C148.129 364.173 147.906 363.781 147.615 363.512C147.326 363.243 146.979 363.108 146.573 363.108C145.963 363.108 145.486 363.409 145.143 364.011C144.799 364.61 144.628 365.457 144.628 366.553C144.628 367.283 144.705 367.904 144.859 368.415C145.012 368.926 145.233 369.315 145.522 369.581C145.813 369.848 146.163 369.981 146.573 369.981ZM154.038 362.334V370.772H153.016V363.405H152.967L150.907 364.773V363.735L153.016 362.334H154.038ZM159.168 370.887C158.602 370.887 158.102 370.787 157.668 370.586C157.237 370.383 156.9 370.104 156.659 369.75C156.417 369.393 156.297 368.986 156.3 368.53C156.297 368.173 156.367 367.844 156.51 367.542C156.653 367.237 156.848 366.983 157.095 366.779C157.345 366.573 157.624 366.443 157.932 366.388V366.339C157.528 366.234 157.206 366.008 156.968 365.659C156.729 365.307 156.61 364.908 156.613 364.46C156.61 364.031 156.719 363.648 156.939 363.31C157.158 362.972 157.461 362.706 157.845 362.511C158.232 362.316 158.673 362.218 159.168 362.218C159.657 362.218 160.093 362.316 160.478 362.511C160.862 362.706 161.165 362.972 161.384 363.31C161.607 363.648 161.719 364.031 161.722 364.46C161.719 364.908 161.597 365.307 161.355 365.659C161.116 366.008 160.799 366.234 160.404 366.339V366.388C160.709 366.443 160.983 366.573 161.228 366.779C161.472 366.983 161.667 367.237 161.813 367.542C161.958 367.844 162.033 368.173 162.035 368.53C162.033 368.986 161.909 369.393 161.664 369.75C161.423 370.104 161.086 370.383 160.655 370.586C160.227 370.787 159.731 370.887 159.168 370.887ZM159.168 369.981C159.549 369.981 159.879 369.919 160.156 369.795C160.434 369.672 160.648 369.497 160.799 369.272C160.95 369.047 161.027 368.783 161.03 368.481C161.027 368.162 160.945 367.881 160.783 367.636C160.621 367.392 160.4 367.2 160.119 367.06C159.842 366.92 159.525 366.849 159.168 366.849C158.808 366.849 158.486 366.92 158.204 367.06C157.923 367.2 157.702 367.392 157.54 367.636C157.381 367.881 157.303 368.162 157.305 368.481C157.303 368.783 157.375 369.047 157.524 369.272C157.675 369.497 157.89 369.672 158.171 369.795C158.451 369.919 158.783 369.981 159.168 369.981ZM159.168 365.976C159.47 365.976 159.738 365.916 159.971 365.795C160.207 365.674 160.393 365.505 160.527 365.288C160.662 365.071 160.731 364.817 160.733 364.526C160.731 364.24 160.663 363.992 160.531 363.78C160.4 363.566 160.217 363.401 159.983 363.286C159.75 363.167 159.478 363.108 159.168 363.108C158.852 363.108 158.576 363.167 158.34 363.286C158.103 363.401 157.921 363.566 157.792 363.78C157.662 363.992 157.599 364.24 157.602 364.526C157.599 364.817 157.664 365.071 157.796 365.288C157.93 365.505 158.116 365.674 158.352 365.795C158.588 365.916 158.86 365.976 159.168 365.976Z" fill="#615E83"/>
<path d="M75.5893 370.772V370.03L78.3745 366.981C78.7014 366.624 78.9705 366.314 79.182 366.05C79.3935 365.784 79.5501 365.534 79.6517 365.3C79.7561 365.064 79.8083 364.817 79.8083 364.559C79.8083 364.262 79.7369 364.005 79.594 363.788C79.454 363.571 79.2617 363.404 79.0172 363.286C78.7728 363.167 78.4981 363.108 78.1932 363.108C77.8691 363.108 77.5862 363.176 77.3445 363.31C77.1055 363.442 76.9201 363.628 76.7883 363.867C76.6592 364.105 76.5946 364.386 76.5946 364.707H75.6223C75.6223 364.213 75.7363 363.779 75.9642 363.405C76.1922 363.032 76.5026 362.74 76.8954 362.532C77.2909 362.323 77.7345 362.218 78.2262 362.218C78.7206 362.218 79.1587 362.323 79.5405 362.532C79.9223 362.74 80.2217 363.022 80.4387 363.376C80.6557 363.731 80.7642 364.125 80.7642 364.559C80.7642 364.869 80.7078 365.173 80.5952 365.469C80.4854 365.763 80.2931 366.091 80.0184 366.454C79.7465 366.814 79.3688 367.253 78.8854 367.772L76.9901 369.799V369.865H80.9125V370.772H75.5893ZM85.3663 370.887C84.7455 370.887 84.2168 370.718 83.7801 370.38C83.3433 370.04 83.0096 369.547 82.7789 368.901C82.5482 368.253 82.4328 367.47 82.4328 366.553C82.4328 365.641 82.5482 364.862 82.7789 364.217C83.0124 363.569 83.3475 363.074 83.7842 362.733C84.2237 362.39 84.751 362.218 85.3663 362.218C85.9816 362.218 86.5076 362.39 86.9443 362.733C87.3838 363.074 87.7189 363.569 87.9496 364.217C88.1831 364.862 88.2998 365.641 88.2998 366.553C88.2998 367.47 88.1845 368.253 87.9537 368.901C87.723 369.547 87.3893 370.04 86.9525 370.38C86.5158 370.718 85.9871 370.887 85.3663 370.887ZM85.3663 369.981C85.9816 369.981 86.4595 369.684 86.8001 369.091C87.1407 368.498 87.311 367.652 87.311 366.553C87.311 365.822 87.2327 365.2 87.0761 364.686C86.9223 364.173 86.6998 363.781 86.4087 363.512C86.1203 363.243 85.7728 363.108 85.3663 363.108C84.7565 363.108 84.28 363.409 83.9366 364.011C83.5933 364.61 83.4216 365.457 83.4216 366.553C83.4216 367.283 83.4985 367.904 83.6523 368.415C83.8062 368.926 84.0273 369.315 84.3157 369.581C84.6068 369.848 84.957 369.981 85.3663 369.981ZM92.8319 362.334V370.772H91.8101V363.405H91.7607L89.7007 364.773V363.735L91.8101 362.334H92.8319ZM95.5224 370.772L99.2964 363.306V363.24H94.9455V362.334H100.351V363.29L96.5936 370.772H95.5224Z" fill="#615E83"/>
<path d="M198.044 370.772V370.03L200.829 366.981C201.156 366.624 201.425 366.314 201.637 366.05C201.848 365.784 202.005 365.534 202.106 365.3C202.211 365.064 202.263 364.817 202.263 364.559C202.263 364.262 202.192 364.005 202.049 363.788C201.909 363.571 201.716 363.404 201.472 363.286C201.227 363.167 200.953 363.108 200.648 363.108C200.324 363.108 200.041 363.176 199.799 363.31C199.56 363.442 199.375 363.628 199.243 363.867C199.114 364.105 199.049 364.386 199.049 364.707H198.077C198.077 364.213 198.191 363.779 198.419 363.405C198.647 363.032 198.957 362.74 199.35 362.532C199.746 362.323 200.189 362.218 200.681 362.218C201.175 362.218 201.613 362.323 201.995 362.532C202.377 362.74 202.676 363.022 202.893 363.376C203.11 363.731 203.219 364.125 203.219 364.559C203.219 364.869 203.162 365.173 203.05 365.469C202.94 365.763 202.748 366.091 202.473 366.454C202.201 366.814 201.823 367.253 201.34 367.772L199.445 369.799V369.865H203.367V370.772H198.044ZM207.821 370.887C207.2 370.887 206.671 370.718 206.235 370.38C205.798 370.04 205.464 369.547 205.234 368.901C205.003 368.253 204.887 367.47 204.887 366.553C204.887 365.641 205.003 364.862 205.234 364.217C205.467 363.569 205.802 363.074 206.239 362.733C206.678 362.39 207.206 362.218 207.821 362.218C208.436 362.218 208.962 362.39 209.399 362.733C209.838 363.074 210.174 363.569 210.404 364.217C210.638 364.862 210.754 365.641 210.754 366.553C210.754 367.47 210.639 368.253 210.408 368.901C210.178 369.547 209.844 370.04 209.407 370.38C208.97 370.718 208.442 370.887 207.821 370.887ZM207.821 369.981C208.436 369.981 208.914 369.684 209.255 369.091C209.595 368.498 209.766 367.652 209.766 366.553C209.766 365.822 209.687 365.2 209.531 364.686C209.377 364.173 209.154 363.781 208.863 363.512C208.575 363.243 208.227 363.108 207.821 363.108C207.211 363.108 206.735 363.409 206.391 364.011C206.048 364.61 205.876 365.457 205.876 366.553C205.876 367.283 205.953 367.904 206.107 368.415C206.261 368.926 206.482 369.315 206.77 369.581C207.061 369.848 207.412 369.981 207.821 369.981ZM215.287 362.334V370.772H214.265V363.405H214.215L212.155 364.773V363.735L214.265 362.334H215.287ZM220.4 362.218C220.746 362.221 221.092 362.287 221.438 362.416C221.784 362.545 222.1 362.76 222.386 363.059C222.671 363.356 222.901 363.761 223.074 364.274C223.247 364.788 223.333 365.432 223.333 366.207C223.333 366.957 223.262 367.623 223.119 368.205C222.979 368.785 222.776 369.273 222.509 369.672C222.245 370.07 221.924 370.372 221.545 370.578C221.169 370.784 220.743 370.887 220.268 370.887C219.795 370.887 219.374 370.794 219.003 370.607C218.635 370.417 218.333 370.155 218.096 369.82C217.863 369.482 217.713 369.091 217.647 368.646H218.653C218.743 369.033 218.923 369.353 219.192 369.606C219.464 369.856 219.823 369.981 220.268 369.981C220.919 369.981 221.432 369.696 221.809 369.128C222.188 368.559 222.377 367.756 222.377 366.718H222.311C222.158 366.948 221.975 367.148 221.763 367.315C221.552 367.483 221.317 367.612 221.059 367.702C220.801 367.793 220.526 367.838 220.235 367.838C219.751 367.838 219.308 367.719 218.904 367.48C218.503 367.238 218.182 366.907 217.94 366.487C217.701 366.064 217.581 365.58 217.581 365.037C217.581 364.52 217.697 364.048 217.928 363.619C218.161 363.188 218.488 362.845 218.908 362.589C219.331 362.334 219.828 362.21 220.4 362.218ZM220.4 363.125C220.054 363.125 219.742 363.211 219.464 363.384C219.19 363.555 218.971 363.785 218.809 364.077C218.65 364.365 218.57 364.685 218.57 365.037C218.57 365.388 218.647 365.708 218.801 365.997C218.958 366.282 219.17 366.51 219.44 366.681C219.712 366.848 220.021 366.932 220.367 366.932C220.628 366.932 220.871 366.881 221.096 366.779C221.321 366.675 221.518 366.534 221.685 366.355C221.855 366.174 221.989 365.969 222.085 365.741C222.181 365.51 222.229 365.27 222.229 365.02C222.229 364.691 222.149 364.382 221.99 364.093C221.833 363.805 221.616 363.571 221.339 363.393C221.064 363.214 220.751 363.125 220.4 363.125Z" fill="#615E83"/>
<path d="M258.861 370.772V370.03L261.646 366.981C261.973 366.624 262.242 366.314 262.454 366.05C262.665 365.784 262.822 365.534 262.923 365.3C263.028 365.064 263.08 364.817 263.08 364.559C263.08 364.262 263.008 364.005 262.866 363.788C262.726 363.571 262.533 363.404 262.289 363.286C262.044 363.167 261.77 363.108 261.465 363.108C261.141 363.108 260.858 363.176 260.616 363.31C260.377 363.442 260.192 363.628 260.06 363.867C259.931 364.105 259.866 364.386 259.866 364.707H258.894C258.894 364.213 259.008 363.779 259.236 363.405C259.464 363.032 259.774 362.74 260.167 362.532C260.563 362.323 261.006 362.218 261.498 362.218C261.992 362.218 262.43 362.323 262.812 362.532C263.194 362.74 263.493 363.022 263.71 363.376C263.927 363.731 264.036 364.125 264.036 364.559C264.036 364.869 263.979 365.173 263.867 365.469C263.757 365.763 263.565 366.091 263.29 366.454C263.018 366.814 262.64 367.253 262.157 367.772L260.262 369.799V369.865H264.184V370.772H258.861ZM268.638 370.887C268.017 370.887 267.488 370.718 267.052 370.38C266.615 370.04 266.281 369.547 266.05 368.901C265.82 368.253 265.704 367.47 265.704 366.553C265.704 365.641 265.82 364.862 266.05 364.217C266.284 363.569 266.619 363.074 267.056 362.733C267.495 362.39 268.023 362.218 268.638 362.218C269.253 362.218 269.779 362.39 270.216 362.733C270.655 363.074 270.99 363.569 271.221 364.217C271.455 364.862 271.571 365.641 271.571 366.553C271.571 367.47 271.456 368.253 271.225 368.901C270.995 369.547 270.661 370.04 270.224 370.38C269.787 370.718 269.259 370.887 268.638 370.887ZM268.638 369.981C269.253 369.981 269.731 369.684 270.072 369.091C270.412 368.498 270.583 367.652 270.583 366.553C270.583 365.822 270.504 365.2 270.348 364.686C270.194 364.173 269.971 363.781 269.68 363.512C269.392 363.243 269.044 363.108 268.638 363.108C268.028 363.108 267.552 363.409 267.208 364.011C266.865 364.61 266.693 365.457 266.693 366.553C266.693 367.283 266.77 367.904 266.924 368.415C267.078 368.926 267.299 369.315 267.587 369.581C267.878 369.848 268.229 369.981 268.638 369.981ZM273.137 370.772V370.03L275.922 366.981C276.249 366.624 276.518 366.314 276.73 366.05C276.941 365.784 277.098 365.534 277.199 365.3C277.304 365.064 277.356 364.817 277.356 364.559C277.356 364.262 277.285 364.005 277.142 363.788C277.002 363.571 276.809 363.404 276.565 363.286C276.321 363.167 276.046 363.108 275.741 363.108C275.417 363.108 275.134 363.176 274.892 363.31C274.653 363.442 274.468 363.628 274.336 363.867C274.207 364.105 274.142 364.386 274.142 364.707H273.17C273.17 364.213 273.284 363.779 273.512 363.405C273.74 363.032 274.05 362.74 274.443 362.532C274.839 362.323 275.282 362.218 275.774 362.218C276.268 362.218 276.706 362.323 277.088 362.532C277.47 362.74 277.769 363.022 277.986 363.376C278.203 363.731 278.312 364.125 278.312 364.559C278.312 364.869 278.256 365.173 278.143 365.469C278.033 365.763 277.841 366.091 277.566 366.454C277.294 366.814 276.917 367.253 276.433 367.772L274.538 369.799V369.865H278.46V370.772H273.137ZM282.914 370.887C282.293 370.887 281.765 370.718 281.328 370.38C280.891 370.04 280.557 369.547 280.327 368.901C280.096 368.253 279.981 367.47 279.981 366.553C279.981 365.641 280.096 364.862 280.327 364.217C280.56 363.569 280.895 363.074 281.332 362.733C281.771 362.39 282.299 362.218 282.914 362.218C283.529 362.218 284.055 362.39 284.492 362.733C284.932 363.074 285.267 363.569 285.497 364.217C285.731 364.862 285.848 365.641 285.848 366.553C285.848 367.47 285.732 368.253 285.502 368.901C285.271 369.547 284.937 370.04 284.5 370.38C284.064 370.718 283.535 370.887 282.914 370.887ZM282.914 369.981C283.529 369.981 284.007 369.684 284.348 369.091C284.688 368.498 284.859 367.652 284.859 366.553C284.859 365.822 284.78 365.2 284.624 364.686C284.47 364.173 284.248 363.781 283.956 363.512C283.668 363.243 283.321 363.108 282.914 363.108C282.304 363.108 281.828 363.409 281.484 364.011C281.141 364.61 280.969 365.457 280.969 366.553C280.969 367.283 281.046 367.904 281.2 368.415C281.354 368.926 281.575 369.315 281.863 369.581C282.155 369.848 282.505 369.981 282.914 369.981Z" fill="#615E83"/>
<path d="M321.26 370.772V370.03L324.045 366.981C324.372 366.624 324.641 366.314 324.852 366.05C325.064 365.784 325.22 365.534 325.322 365.3C325.426 365.064 325.479 364.817 325.479 364.559C325.479 364.262 325.407 364.005 325.264 363.788C325.124 363.571 324.932 363.404 324.687 363.286C324.443 363.167 324.168 363.108 323.863 363.108C323.539 363.108 323.256 363.176 323.015 363.31C322.776 363.442 322.59 363.628 322.458 363.867C322.329 364.105 322.265 364.386 322.265 364.707H321.292C321.292 364.213 321.406 363.779 321.634 363.405C321.862 363.032 322.173 362.74 322.566 362.532C322.961 362.323 323.405 362.218 323.896 362.218C324.391 362.218 324.829 362.323 325.211 362.532C325.592 362.74 325.892 363.022 326.109 363.376C326.326 363.731 326.434 364.125 326.434 364.559C326.434 364.869 326.378 365.173 326.265 365.469C326.156 365.763 325.963 366.091 325.689 366.454C325.417 366.814 325.039 367.253 324.556 367.772L322.66 369.799V369.865H326.583V370.772H321.26ZM331.037 370.887C330.416 370.887 329.887 370.718 329.45 370.38C329.014 370.04 328.68 369.547 328.449 368.901C328.218 368.253 328.103 367.47 328.103 366.553C328.103 365.641 328.218 364.862 328.449 364.217C328.683 363.569 329.018 363.074 329.454 362.733C329.894 362.39 330.421 362.218 331.037 362.218C331.652 362.218 332.178 362.39 332.615 362.733C333.054 363.074 333.389 363.569 333.62 364.217C333.853 364.862 333.97 365.641 333.97 366.553C333.97 367.47 333.855 368.253 333.624 368.901C333.393 369.547 333.059 370.04 332.623 370.38C332.186 370.718 331.657 370.887 331.037 370.887ZM331.037 369.981C331.652 369.981 332.13 369.684 332.47 369.091C332.811 368.498 332.981 367.652 332.981 366.553C332.981 365.822 332.903 365.2 332.746 364.686C332.593 364.173 332.37 363.781 332.079 363.512C331.791 363.243 331.443 363.108 331.037 363.108C330.427 363.108 329.95 363.409 329.607 364.011C329.264 364.61 329.092 365.457 329.092 366.553C329.092 367.283 329.169 367.904 329.323 368.415C329.476 368.926 329.697 369.315 329.986 369.581C330.277 369.848 330.627 369.981 331.037 369.981ZM335.536 370.772V370.03L338.321 366.981C338.648 366.624 338.917 366.314 339.128 366.05C339.34 365.784 339.496 365.534 339.598 365.3C339.702 365.064 339.755 364.817 339.755 364.559C339.755 364.262 339.683 364.005 339.54 363.788C339.4 363.571 339.208 363.404 338.964 363.286C338.719 363.167 338.444 363.108 338.14 363.108C337.815 363.108 337.533 363.176 337.291 363.31C337.052 363.442 336.866 363.628 336.735 363.867C336.606 364.105 336.541 364.386 336.541 364.707H335.569C335.569 364.213 335.683 363.779 335.911 363.405C336.139 363.032 336.449 362.74 336.842 362.532C337.237 362.323 337.681 362.218 338.173 362.218C338.667 362.218 339.105 362.323 339.487 362.532C339.869 362.74 340.168 363.022 340.385 363.376C340.602 363.731 340.711 364.125 340.711 364.559C340.711 364.869 340.654 365.173 340.542 365.469C340.432 365.763 340.239 366.091 339.965 366.454C339.693 366.814 339.315 367.253 338.832 367.772L336.937 369.799V369.865H340.859V370.772H335.536ZM345.527 362.334V370.772H344.505V363.405H344.456L342.396 364.773V363.735L344.505 362.334H345.527Z" fill="#615E83"/>
<path d="M382.172 370.772V370.03L384.957 366.981C385.284 366.624 385.553 366.314 385.765 366.05C385.976 365.784 386.133 365.534 386.235 365.3C386.339 365.064 386.391 364.817 386.391 364.559C386.391 364.262 386.32 364.005 386.177 363.788C386.037 363.571 385.845 363.404 385.6 363.286C385.356 363.167 385.081 363.108 384.776 363.108C384.452 363.108 384.169 363.176 383.927 363.31C383.688 363.442 383.503 363.628 383.371 363.867C383.242 364.105 383.178 364.386 383.178 364.707H382.205C382.205 364.213 382.319 363.779 382.547 363.405C382.775 363.032 383.085 362.74 383.478 362.532C383.874 362.323 384.317 362.218 384.809 362.218C385.303 362.218 385.742 362.323 386.123 362.532C386.505 362.74 386.805 363.022 387.022 363.376C387.239 363.731 387.347 364.125 387.347 364.559C387.347 364.869 387.291 365.173 387.178 365.469C387.068 365.763 386.876 366.091 386.601 366.454C386.329 366.814 385.952 367.253 385.468 367.772L383.573 369.799V369.865H387.495V370.772H382.172ZM391.949 370.887C391.328 370.887 390.8 370.718 390.363 370.38C389.926 370.04 389.593 369.547 389.362 368.901C389.131 368.253 389.016 367.47 389.016 366.553C389.016 365.641 389.131 364.862 389.362 364.217C389.595 363.569 389.93 363.074 390.367 362.733C390.807 362.39 391.334 362.218 391.949 362.218C392.564 362.218 393.09 362.39 393.527 362.733C393.967 363.074 394.302 363.569 394.533 364.217C394.766 364.862 394.883 365.641 394.883 366.553C394.883 367.47 394.767 368.253 394.537 368.901C394.306 369.547 393.972 370.04 393.535 370.38C393.099 370.718 392.57 370.887 391.949 370.887ZM391.949 369.981C392.564 369.981 393.042 369.684 393.383 369.091C393.724 368.498 393.894 367.652 393.894 366.553C393.894 365.822 393.816 365.2 393.659 364.686C393.505 364.173 393.283 363.781 392.992 363.512C392.703 363.243 392.356 363.108 391.949 363.108C391.339 363.108 390.863 363.409 390.52 364.011C390.176 364.61 390.005 365.457 390.005 366.553C390.005 367.283 390.081 367.904 390.235 368.415C390.389 368.926 390.61 369.315 390.899 369.581C391.19 369.848 391.54 369.981 391.949 369.981ZM396.448 370.772V370.03L399.234 366.981C399.56 366.624 399.83 366.314 400.041 366.05C400.253 365.784 400.409 365.534 400.511 365.3C400.615 365.064 400.667 364.817 400.667 364.559C400.667 364.262 400.596 364.005 400.453 363.788C400.313 363.571 400.121 363.404 399.876 363.286C399.632 363.167 399.357 363.108 399.052 363.108C398.728 363.108 398.445 363.176 398.204 363.31C397.965 363.442 397.779 363.628 397.647 363.867C397.518 364.105 397.454 364.386 397.454 364.707H396.481C396.481 364.213 396.595 363.779 396.823 363.405C397.051 363.032 397.362 362.74 397.754 362.532C398.15 362.323 398.594 362.218 399.085 362.218C399.58 362.218 400.018 362.323 400.4 362.532C400.781 362.74 401.081 363.022 401.298 363.376C401.515 363.731 401.623 364.125 401.623 364.559C401.623 364.869 401.567 365.173 401.454 365.469C401.344 365.763 401.152 366.091 400.877 366.454C400.606 366.814 400.228 367.253 399.744 367.772L397.849 369.799V369.865H401.772V370.772H396.448ZM403.473 370.772V370.03L406.258 366.981C406.585 366.624 406.854 366.314 407.066 366.05C407.277 365.784 407.434 365.534 407.536 365.3C407.64 365.064 407.692 364.817 407.692 364.559C407.692 364.262 407.621 364.005 407.478 363.788C407.338 363.571 407.146 363.404 406.901 363.286C406.657 363.167 406.382 363.108 406.077 363.108C405.753 363.108 405.47 363.176 405.228 363.31C404.989 363.442 404.804 363.628 404.672 363.867C404.543 364.105 404.478 364.386 404.478 364.707H403.506C403.506 364.213 403.62 363.779 403.848 363.405C404.076 363.032 404.386 362.74 404.779 362.532C405.175 362.323 405.618 362.218 406.11 362.218C406.604 362.218 407.043 362.323 407.424 362.532C407.806 362.74 408.105 363.022 408.322 363.376C408.539 363.731 408.648 364.125 408.648 364.559C408.648 364.869 408.592 365.173 408.479 365.469C408.369 365.763 408.177 366.091 407.902 366.454C407.63 366.814 407.253 367.253 406.769 367.772L404.874 369.799V369.865H408.796V370.772H403.473Z" fill="#615E83"/>
<path d="M56.9936 345.673C56.3729 345.673 55.8441 345.504 55.4074 345.166C54.9707 344.825 54.6369 344.332 54.4062 343.687C54.1755 343.039 54.0601 342.256 54.0601 341.339C54.0601 340.427 54.1755 339.648 54.4062 339.002C54.6397 338.354 54.9748 337.86 55.4115 337.519C55.851 337.176 56.3784 337.004 56.9936 337.004C57.6089 337.004 58.1349 337.176 58.5716 337.519C59.0111 337.86 59.3462 338.354 59.5769 339.002C59.8104 339.648 59.9271 340.427 59.9271 341.339C59.9271 342.256 59.8118 343.039 59.5811 343.687C59.3503 344.332 59.0166 344.825 58.5799 345.166C58.1431 345.504 57.6144 345.673 56.9936 345.673ZM56.9936 344.766C57.6089 344.766 58.0868 344.47 58.4274 343.876C58.768 343.283 58.9383 342.437 58.9383 341.339C58.9383 340.608 58.86 339.986 58.7035 339.472C58.5497 338.958 58.3272 338.567 58.036 338.298C57.7476 338.029 57.4002 337.894 56.9936 337.894C56.3839 337.894 55.9073 338.195 55.564 338.796C55.2206 339.395 55.0489 340.243 55.0489 341.339C55.0489 342.069 55.1259 342.69 55.2797 343.201C55.4335 343.712 55.6546 344.1 55.943 344.367C56.2342 344.633 56.5844 344.766 56.9936 344.766Z" fill="#615E83"/>
<path d="M48.4571 297.122V305.56H47.4353V298.193H47.3859L45.3258 299.561V298.522L47.4353 297.122H48.4571ZM51.0322 297.122H52.2517L55.1193 304.126H55.2182L58.0858 297.122H59.3053V305.56H58.3495V299.149H58.2671L55.6302 305.56H54.7073L52.0704 299.149H51.988V305.56H51.0322V297.122Z" fill="#615E83"/>
<path d="M44.2018 261.478V260.736L46.987 257.687C47.3138 257.33 47.583 257.02 47.7945 256.756C48.006 256.489 48.1626 256.24 48.2642 256.006C48.3686 255.77 48.4208 255.523 48.4208 255.264C48.4208 254.968 48.3494 254.711 48.2065 254.494C48.0664 254.277 47.8742 254.109 47.6297 253.991C47.3853 253.873 47.1106 253.814 46.8057 253.814C46.4816 253.814 46.1987 253.881 45.957 254.016C45.718 254.148 45.5326 254.333 45.4007 254.572C45.2716 254.811 45.2071 255.091 45.2071 255.413H44.2347C44.2347 254.918 44.3487 254.484 44.5767 254.111C44.8047 253.737 45.1151 253.446 45.5079 253.237C45.9034 253.029 46.347 252.924 46.8387 252.924C47.3331 252.924 47.7712 253.029 48.153 253.237C48.5348 253.446 48.8342 253.728 49.0511 254.082C49.2681 254.436 49.3766 254.83 49.3766 255.264C49.3766 255.575 49.3203 255.878 49.2077 256.175C49.0978 256.469 48.9056 256.797 48.6309 257.16C48.359 257.519 47.9813 257.959 47.4979 258.478L45.6026 260.505V260.571H49.525V261.478H44.2018ZM51.3749 253.04H52.5944L55.462 260.044H55.5609L58.4285 253.04H59.6481V261.478H58.6922V255.067H58.6098L55.9729 261.478H55.05L52.4132 255.067H52.3307V261.478H51.3749V253.04Z" fill="#615E83"/>
<path d="M45.8612 218.723C45.3174 218.723 44.8326 218.63 44.4068 218.443C43.9838 218.256 43.6474 217.996 43.3974 217.664C43.1502 217.329 43.0156 216.94 42.9936 216.498H44.0319C44.0539 216.77 44.1473 217.005 44.3121 217.203C44.4769 217.398 44.6925 217.549 44.9589 217.656C45.2254 217.763 45.5206 217.816 45.8447 217.816C46.2073 217.816 46.5287 217.753 46.8089 217.627C47.089 217.501 47.3088 217.325 47.4681 217.1C47.6274 216.874 47.707 216.613 47.707 216.317C47.707 216.006 47.6301 215.733 47.4763 215.497C47.3225 215.258 47.0973 215.071 46.8006 214.937C46.504 214.802 46.1414 214.735 45.7129 214.735H45.0372V213.828H45.7129C46.048 213.828 46.3419 213.768 46.5946 213.647C46.8501 213.526 47.0492 213.356 47.192 213.136C47.3376 212.916 47.4104 212.658 47.4104 212.361C47.4104 212.076 47.3472 211.827 47.2209 211.616C47.0945 211.404 46.916 211.239 46.6852 211.121C46.4573 211.003 46.1881 210.944 45.8777 210.944C45.5866 210.944 45.3119 210.998 45.0537 211.105C44.7982 211.209 44.5895 211.362 44.4274 211.562C44.2654 211.76 44.1775 211.999 44.1637 212.279H43.1749C43.1914 211.837 43.3246 211.45 43.5746 211.117C43.8245 210.782 44.1514 210.521 44.5552 210.334C44.9617 210.148 45.408 210.054 45.8942 210.054C46.4161 210.054 46.8638 210.16 47.2373 210.371C47.6109 210.58 47.8979 210.856 48.0984 211.2C48.299 211.543 48.3992 211.914 48.3992 212.312C48.3992 212.787 48.2742 213.192 48.0243 213.527C47.7771 213.863 47.4406 214.095 47.0149 214.224V214.29C47.5477 214.378 47.9639 214.604 48.2632 214.969C48.5626 215.332 48.7123 215.781 48.7123 216.317C48.7123 216.775 48.5874 217.187 48.3374 217.553C48.0902 217.915 47.7524 218.201 47.3239 218.41C46.8954 218.619 46.4078 218.723 45.8612 218.723ZM50.5458 210.17H51.7653L54.6329 217.174H54.7318L57.5994 210.17H58.819V218.608H57.8631V212.197H57.7807L55.1438 218.608H54.2209L51.5841 212.197H51.5016V218.608H50.5458V210.17Z" fill="#615E83"/>
<line x1="74.5182" y1="345.89" x2="408.808" y2="345.89" stroke="#E5E5EF" stroke-width="1.24309" stroke-linecap="round"/>
<line x1="74.5182" y1="300.568" x2="408.808" y2="300.568" stroke="#E5E5EF" stroke-width="1.24309" stroke-linecap="round" stroke-dasharray="3.31 5.8"/>
<line x1="74.5182" y1="256.486" x2="408.808" y2="256.486" stroke="#E5E5EF" stroke-width="1.24309" stroke-linecap="round" stroke-dasharray="3.31 5.8"/>
<line x1="74.5182" y1="212.404" x2="408.808" y2="212.404" stroke="#E5E5EF" stroke-width="1.24309" stroke-linecap="round" stroke-dasharray="3.31 5.8"/>
<path d="M73.8967 241.879C73.8967 237.302 77.607 233.591 82.184 233.591H93.5441C98.1211 233.591 101.831 237.302 101.831 241.879V261.526H73.8967V241.879Z" fill="#C893FD"/>
<rect x="73.8967" y="261.526" width="27.9348" height="27.9348" fill="#E0C6FD"/>
<rect x="73.8967" y="289.461" width="27.9348" height="27.9348" fill="#F0E5FC"/>
<rect x="73.8967" y="317.396" width="27.9348" height="27.9348" fill="#F2F1FF"/>
<path d="M135.364 269.814C135.364 265.237 139.075 261.526 143.652 261.526H155.012C159.589 261.526 163.299 265.237 163.299 269.814V289.461H135.364V269.814Z" fill="#E0C6FD"/>
<rect x="135.364" y="289.461" width="27.9348" height="27.9348" fill="#F0E5FC"/>
<rect x="135.364" y="317.396" width="27.9348" height="27.9348" fill="#F2F1FF"/>
<path d="M196.831 213.944C196.831 209.367 200.542 205.656 205.119 205.656H216.479C221.056 205.656 224.766 209.367 224.766 213.944V233.591H196.831V213.944Z" fill="#962DFF"/>
<rect x="196.831" y="233.591" width="27.9348" height="27.9348" fill="#C893FD"/>
<rect x="196.831" y="261.526" width="27.9348" height="27.9348" fill="#E0C6FD"/>
<rect x="196.831" y="289.46" width="27.9348" height="27.9348" fill="#F0E5FC"/>
<rect x="196.831" y="317.396" width="27.9348" height="27.9348" fill="#F2F1FF"/>
<path d="M258.299 269.814C258.299 265.237 262.009 261.526 266.586 261.526H277.946C282.523 261.526 286.234 265.237 286.234 269.814V289.461H258.299V269.814Z" fill="#E0C6FD"/>
<rect x="258.299" y="289.461" width="27.9348" height="27.9348" fill="#F0E5FC"/>
<rect x="258.299" y="317.396" width="27.9348" height="27.9348" fill="#F2F1FF"/>
<path d="M319.766 269.814C319.766 265.237 323.476 261.526 328.053 261.526H339.413C343.99 261.526 347.701 265.237 347.701 269.814V289.461H319.766V269.814Z" fill="#E0C6FD"/>
<rect x="319.766" y="289.461" width="27.9348" height="27.9348" fill="#F0E5FC"/>
<rect x="319.766" y="317.396" width="27.9348" height="27.9348" fill="#F2F1FF"/>
<path d="M381.232 269.814C381.232 265.237 384.943 261.526 389.52 261.526H400.88C405.457 261.526 409.167 265.237 409.167 269.814V289.461H381.232V269.814Z" fill="#E0C6FD"/>
<rect x="381.232" y="289.461" width="27.9348" height="27.9348" fill="#F0E5FC"/>
<rect x="381.232" y="317.396" width="27.9348" height="27.9348" fill="#F2F1FF"/>
<path opacity="0.7" d="M171.369 247.163C131.526 290.441 99.0968 267.094 87.8625 247.344V345.239H395.471V275.626C391.674 277.59 382.944 294.573 365.215 279.578C336.235 251.671 311.763 272.924 304.464 279.578C297.165 286.233 272.907 303.407 254.446 264.766C235.984 226.126 223.319 220.33 216.664 219.9C210.009 219.471 198.203 216.466 171.369 247.163Z" fill="url(#paint0_linear_168_7648)"/>
<path d="M87.8625 247.344C99.0968 267.094 131.526 290.441 171.369 247.163C198.203 216.466 210.009 219.471 216.664 219.9C223.319 220.33 235.984 226.126 254.446 264.766C272.907 303.407 297.165 286.233 304.464 279.578C311.763 272.924 336.235 251.671 365.215 279.578C382.944 294.573 391.674 277.59 395.471 275.626" stroke="#FF718B" stroke-width="1.65746" stroke-linecap="round"/>
<circle cx="87.863" cy="247.559" r="2.90055" fill="#FF718B" stroke="white" stroke-width="1.65746"/>
<circle cx="149.886" cy="264.811" r="2.90055" fill="#FF718B" stroke="white" stroke-width="1.65746"/>
<circle cx="210.797" cy="219.624" r="2.90055" fill="#FF718B" stroke="white" stroke-width="1.65746"/>
<circle cx="272.264" cy="286.402" r="2.90055" fill="#FF718B" stroke="white" stroke-width="1.65746"/>
<circle cx="333.732" cy="265.645" r="2.90055" fill="#FF718B" stroke="white" stroke-width="1.65746"/>
<circle cx="395.198" cy="275.494" r="2.90055" fill="#FF718B" stroke="white" stroke-width="1.65746"/>
<line x1="41.8467" y1="175.408" x2="409.429" y2="175.408" stroke="#E5E5EF" stroke-width="0.828729"/>
<rect x="309.159" y="119.459" width="100.008" height="33.1584" rx="16.5746" fill="#F8F8FF"/>
<path d="M323.787 140.747H322.716L325.814 132.309H326.869L329.967 140.747H328.896L326.374 133.644H326.308L323.787 140.747ZM324.182 137.451H328.5V138.357H324.182V137.451ZM332.122 136.94V140.747H331.15V134.418H332.089V135.407H332.171C332.32 135.086 332.545 134.827 332.847 134.632C333.149 134.435 333.539 134.336 334.017 134.336C334.446 134.336 334.821 134.424 335.142 134.599C335.463 134.772 335.713 135.036 335.892 135.391C336.07 135.742 336.16 136.187 336.16 136.725V140.747H335.187V136.791C335.187 136.294 335.058 135.907 334.8 135.629C334.542 135.349 334.187 135.209 333.737 135.209C333.427 135.209 333.149 135.277 332.905 135.411C332.663 135.546 332.472 135.742 332.332 136C332.192 136.258 332.122 136.572 332.122 136.94ZM338.909 136.94V140.747H337.936V134.418H338.876V135.407H338.958C339.106 135.086 339.332 134.827 339.634 134.632C339.936 134.435 340.326 134.336 340.804 134.336C341.232 134.336 341.607 134.424 341.929 134.599C342.25 134.772 342.5 135.036 342.679 135.391C342.857 135.742 342.946 136.187 342.946 136.725V140.747H341.974V136.791C341.974 136.294 341.845 135.907 341.587 135.629C341.329 135.349 340.974 135.209 340.524 135.209C340.213 135.209 339.936 135.277 339.692 135.411C339.45 135.546 339.259 135.742 339.119 136C338.979 136.258 338.909 136.572 338.909 136.94ZM348.711 138.159V134.418H349.684V140.747H348.711V139.675H348.646C348.497 139.997 348.266 140.27 347.953 140.495C347.64 140.718 347.245 140.829 346.767 140.829C346.371 140.829 346.02 140.743 345.712 140.569C345.404 140.394 345.163 140.13 344.987 139.778C344.811 139.424 344.723 138.978 344.723 138.439V134.418H345.696V138.373C345.696 138.835 345.825 139.203 346.083 139.478C346.344 139.752 346.676 139.89 347.08 139.89C347.322 139.89 347.567 139.828 347.817 139.704C348.07 139.581 348.282 139.391 348.452 139.136C348.625 138.88 348.711 138.555 348.711 138.159ZM353.327 140.895C352.926 140.895 352.562 140.819 352.235 140.668C351.908 140.515 351.649 140.293 351.456 140.005C351.264 139.714 351.168 139.362 351.168 138.95C351.168 138.588 351.239 138.294 351.382 138.069C351.525 137.841 351.716 137.662 351.955 137.533C352.194 137.404 352.458 137.308 352.746 137.245C353.037 137.179 353.33 137.126 353.624 137.088C354.008 137.039 354.32 137.001 354.559 136.977C354.801 136.949 354.976 136.904 355.086 136.841C355.199 136.778 355.255 136.668 355.255 136.511V136.478C355.255 136.072 355.144 135.756 354.921 135.531C354.702 135.305 354.368 135.193 353.92 135.193C353.456 135.193 353.092 135.294 352.828 135.498C352.565 135.701 352.379 135.918 352.272 136.149L351.349 135.819C351.514 135.434 351.734 135.135 352.009 134.921C352.286 134.704 352.588 134.553 352.915 134.468C353.245 134.38 353.569 134.336 353.887 134.336C354.091 134.336 354.324 134.36 354.588 134.41C354.854 134.457 355.111 134.554 355.358 134.702C355.608 134.851 355.816 135.075 355.98 135.374C356.145 135.673 356.228 136.074 356.228 136.577V140.747H355.255V139.89H355.206C355.14 140.027 355.03 140.174 354.876 140.331C354.722 140.487 354.518 140.62 354.262 140.73C354.007 140.84 353.695 140.895 353.327 140.895ZM353.475 140.022C353.86 140.022 354.184 139.946 354.448 139.795C354.714 139.644 354.915 139.449 355.049 139.21C355.187 138.971 355.255 138.72 355.255 138.456V137.566C355.214 137.615 355.123 137.661 354.983 137.702C354.846 137.74 354.687 137.775 354.505 137.805C354.327 137.832 354.152 137.857 353.982 137.879C353.815 137.898 353.679 137.915 353.574 137.928C353.321 137.961 353.085 138.015 352.866 138.089C352.649 138.161 352.473 138.269 352.338 138.415C352.206 138.557 352.14 138.753 352.14 139C352.14 139.338 352.265 139.593 352.515 139.766C352.768 139.936 353.088 140.022 353.475 140.022ZM358.975 132.309V140.747H358.002V132.309H358.975Z" fill="#615E83"/>
<path fill-rule="evenodd" clip-rule="evenodd" d="M388.039 133.927C387.839 134.127 387.839 134.452 388.039 134.652L391.514 138.127C391.521 138.135 391.528 138.142 391.535 138.15C391.636 138.25 391.767 138.3 391.898 138.3C392.03 138.3 392.161 138.25 392.261 138.15C392.269 138.142 392.276 138.135 392.283 138.127L395.758 134.652C395.958 134.452 395.958 134.127 395.758 133.927C395.558 133.727 395.233 133.727 395.033 133.927L391.898 137.062L388.763 133.927C388.563 133.727 388.239 133.727 388.039 133.927Z" fill="#615E83"/>
<path d="M47.3753 154.043V137.469H48.4371V154.043H47.3753ZM50.1917 142.94C50.1399 142.417 49.9176 142.012 49.5248 141.722C49.132 141.433 48.599 141.289 47.9256 141.289C47.4681 141.289 47.0818 141.353 46.7667 141.483C46.4516 141.608 46.2099 141.783 46.0416 142.007C45.8776 142.232 45.7955 142.486 45.7955 142.771C45.7869 143.009 45.8365 143.216 45.9445 143.393C46.0567 143.57 46.2099 143.723 46.4041 143.852C46.5984 143.978 46.8228 144.088 47.0775 144.183C47.3321 144.273 47.6041 144.351 47.8933 144.416L49.0846 144.701C49.6629 144.83 50.1939 145.003 50.6773 145.219C51.1607 145.434 51.5794 145.7 51.9333 146.015C52.2873 146.33 52.5613 146.701 52.7556 147.129C52.9541 147.556 53.0556 148.046 53.0599 148.598C53.0556 149.41 52.8484 150.113 52.4383 150.709C52.0326 151.3 51.4456 151.76 50.6773 152.088C49.9133 152.412 48.9918 152.574 47.9127 152.574C46.8422 152.574 45.9099 152.41 45.1157 152.082C44.3258 151.753 43.7086 151.268 43.264 150.625C42.8238 149.977 42.5928 149.177 42.5713 148.223H45.2841C45.3143 148.667 45.4416 149.039 45.6661 149.336C45.8948 149.63 46.1991 149.852 46.579 150.003C46.9631 150.15 47.3969 150.223 47.8803 150.223C48.3551 150.223 48.7673 150.154 49.1169 150.016C49.4709 149.878 49.745 149.686 49.9392 149.44C50.1334 149.194 50.2305 148.911 50.2305 148.592C50.2305 148.294 50.1421 148.044 49.9651 147.841C49.7924 147.638 49.5378 147.465 49.2011 147.323C48.8687 147.18 48.4609 147.051 47.9774 146.934L46.5336 146.572C45.4157 146.3 44.533 145.875 43.8856 145.296C43.2381 144.718 42.9166 143.939 42.9209 142.959C42.9166 142.156 43.1302 141.455 43.5619 140.855C43.9978 140.255 44.5956 139.787 45.3553 139.45C46.1149 139.113 46.9782 138.945 47.9451 138.945C48.9292 138.945 49.7881 139.113 50.5219 139.45C51.26 139.787 51.834 140.255 52.2441 140.855C52.6541 141.455 52.8656 142.15 52.8786 142.94H50.1917ZM55.3923 152.386L60.8891 141.509V141.418H54.4859V139.126H63.7896V141.45L58.2864 152.386H55.3923ZM70.3758 152.567C69.4607 152.567 68.6449 152.399 67.9284 152.062C67.2163 151.725 66.6508 151.261 66.2321 150.67C65.8135 150.079 65.5955 149.401 65.5782 148.637H68.2975C68.3277 149.151 68.5435 149.567 68.9449 149.887C69.3463 150.206 69.8233 150.366 70.3758 150.366C70.816 150.366 71.2045 150.269 71.5412 150.074C71.8822 149.876 72.1476 149.602 72.3375 149.252C72.5318 148.898 72.6289 148.493 72.6289 148.035C72.6289 147.569 72.5296 147.159 72.3311 146.805C72.1368 146.451 71.8671 146.175 71.5218 145.976C71.1765 145.778 70.7815 145.676 70.3369 145.672C69.9485 145.672 69.5708 145.752 69.2039 145.911C68.8413 146.071 68.5586 146.289 68.3558 146.565L65.8631 146.119L66.4911 139.126H74.5971V141.418H68.8025L68.4593 144.739H68.537C68.7701 144.411 69.1219 144.14 69.5924 143.924C70.0628 143.708 70.5894 143.6 71.1721 143.6C71.9707 143.6 72.6828 143.788 73.3087 144.163C73.9346 144.539 74.4288 145.055 74.7914 145.711C75.1539 146.362 75.333 147.113 75.3287 147.964C75.333 148.857 75.1259 149.651 74.7072 150.346C74.2928 151.037 73.7123 151.581 72.9656 151.978C72.2232 152.371 71.3599 152.567 70.3758 152.567ZM79.8803 150.573L79.8091 151.285C79.7529 151.855 79.645 152.422 79.4853 152.988C79.3299 153.558 79.1659 154.073 78.9933 154.535C78.8249 154.997 78.689 155.36 78.5854 155.623H76.7984C76.8632 155.368 76.9517 155.012 77.0639 154.555C77.1761 154.102 77.2819 153.592 77.3811 153.027C77.4804 152.461 77.543 151.885 77.5689 151.298L77.6013 150.573H79.8803ZM87.1122 152.567C86.1972 152.567 85.3814 152.399 84.6649 152.062C83.9527 151.725 83.3873 151.261 82.9686 150.67C82.5499 150.079 82.3319 149.401 82.3147 148.637H85.0339C85.0641 149.151 85.28 149.567 85.6814 149.887C86.0828 150.206 86.5597 150.366 87.1122 150.366C87.5525 150.366 87.941 150.269 88.2776 150.074C88.6186 149.876 88.8841 149.602 89.074 149.252C89.2682 148.898 89.3653 148.493 89.3653 148.035C89.3653 147.569 89.2661 147.159 89.0675 146.805C88.8733 146.451 88.6035 146.175 88.2582 145.976C87.9129 145.778 87.518 145.676 87.0734 145.672C86.6849 145.672 86.3072 145.752 85.9403 145.911C85.5778 146.071 85.2951 146.289 85.0922 146.565L82.5995 146.119L83.2276 139.126H91.3336V141.418H85.5389L85.1958 144.739H85.2735C85.5066 144.411 85.8583 144.14 86.3288 143.924C86.7993 143.708 87.3259 143.6 87.9086 143.6C88.7071 143.6 89.4193 143.788 90.0451 144.163C90.671 144.539 91.1652 145.055 91.5278 145.711C91.8904 146.362 92.0695 147.113 92.0652 147.964C92.0695 148.857 91.8623 149.651 91.4436 150.346C91.0293 151.037 90.4487 151.581 89.702 151.978C88.9596 152.371 88.0963 152.567 87.1122 152.567ZM99.2194 152.677C98.1058 152.673 97.1476 152.399 96.3448 151.855C95.5463 151.311 94.9312 150.523 94.4996 149.492C94.0723 148.46 93.8608 147.219 93.8651 145.769C93.8651 144.323 94.0787 143.091 94.506 142.072C94.9377 141.053 95.5527 140.279 96.3513 139.748C97.1541 139.212 98.1102 138.945 99.2194 138.945C100.329 138.945 101.283 139.212 102.081 139.748C102.884 140.283 103.501 141.06 103.933 142.078C104.364 143.093 104.578 144.323 104.574 145.769C104.574 147.224 104.358 148.467 103.926 149.498C103.499 150.53 102.886 151.318 102.088 151.861C101.289 152.405 100.333 152.677 99.2194 152.677ZM99.2194 150.353C99.9791 150.353 100.586 149.971 101.039 149.207C101.492 148.443 101.716 147.297 101.712 145.769C101.712 144.763 101.609 143.926 101.401 143.257C101.198 142.588 100.909 142.085 100.534 141.748C100.163 141.412 99.7244 141.243 99.2194 141.243C98.4641 141.243 97.8598 141.621 97.4066 142.376C96.9534 143.132 96.7246 144.263 96.7203 145.769C96.7203 146.788 96.8217 147.638 97.0246 148.32C97.2318 148.998 97.5231 149.507 97.8987 149.848C98.2742 150.184 98.7144 150.353 99.2194 150.353ZM111.772 152.677C110.658 152.673 109.7 152.399 108.897 151.855C108.099 151.311 107.484 150.523 107.052 149.492C106.625 148.46 106.413 147.219 106.417 145.769C106.417 144.323 106.631 143.091 107.058 142.072C107.49 141.053 108.105 140.279 108.904 139.748C109.706 139.212 110.662 138.945 111.772 138.945C112.881 138.945 113.835 139.212 114.633 139.748C115.436 140.283 116.054 141.06 116.485 142.078C116.917 143.093 117.13 144.323 117.126 145.769C117.126 147.224 116.91 148.467 116.479 149.498C116.051 150.53 115.438 151.318 114.64 151.861C113.841 152.405 112.885 152.677 111.772 152.677ZM111.772 150.353C112.531 150.353 113.138 149.971 113.591 149.207C114.044 148.443 114.269 147.297 114.264 145.769C114.264 144.763 114.161 143.926 113.954 143.257C113.751 142.588 113.462 142.085 113.086 141.748C112.715 141.412 112.277 141.243 111.772 141.243C111.016 141.243 110.412 141.621 109.959 142.376C109.506 143.132 109.277 144.263 109.273 145.769C109.273 146.788 109.374 147.638 109.577 148.32C109.784 148.998 110.075 149.507 110.451 149.848C110.827 150.184 111.267 150.353 111.772 150.353ZM120.229 152.554C119.802 152.554 119.435 152.403 119.128 152.101C118.826 151.794 118.675 151.428 118.675 151C118.675 150.577 118.826 150.215 119.128 149.913C119.435 149.61 119.802 149.459 120.229 149.459C120.643 149.459 121.006 149.61 121.317 149.913C121.628 150.215 121.783 150.577 121.783 151C121.783 151.285 121.71 151.546 121.563 151.784C121.42 152.017 121.233 152.205 120.999 152.347C120.766 152.485 120.51 152.554 120.229 152.554ZM128.757 152.567C127.842 152.567 127.027 152.399 126.31 152.062C125.598 151.725 125.033 151.261 124.614 150.67C124.195 150.079 123.977 149.401 123.96 148.637H126.679C126.709 149.151 126.925 149.567 127.327 149.887C127.728 150.206 128.205 150.366 128.757 150.366C129.198 150.366 129.586 150.269 129.923 150.074C130.264 149.876 130.529 149.602 130.719 149.252C130.913 148.898 131.011 148.493 131.011 148.035C131.011 147.569 130.911 147.159 130.713 146.805C130.519 146.451 130.249 146.175 129.903 145.976C129.558 145.778 129.163 145.676 128.719 145.672C128.33 145.672 127.952 145.752 127.586 145.911C127.223 146.071 126.94 146.289 126.737 146.565L124.245 146.119L124.873 139.126H132.979V141.418H127.184L126.841 144.739H126.919C127.152 144.411 127.504 144.14 127.974 143.924C128.445 143.708 128.971 143.6 129.554 143.6C130.352 143.6 131.065 143.788 131.69 144.163C132.316 144.539 132.81 145.055 133.173 145.711C133.536 146.362 133.715 147.113 133.71 147.964C133.715 148.857 133.508 149.651 133.089 150.346C132.675 151.037 132.094 151.581 131.347 151.978C130.605 152.371 129.742 152.567 128.757 152.567ZM140.865 152.677C139.751 152.673 138.793 152.399 137.99 151.855C137.192 151.311 136.576 150.523 136.145 149.492C135.718 148.46 135.506 147.219 135.51 145.769C135.51 144.323 135.724 143.091 136.151 142.072C136.583 141.053 137.198 140.279 137.997 139.748C138.799 139.212 139.755 138.945 140.865 138.945C141.974 138.945 142.928 139.212 143.726 139.748C144.529 140.283 145.146 141.06 145.578 142.078C146.01 143.093 146.223 144.323 146.219 145.769C146.219 147.224 146.003 148.467 145.572 149.498C145.144 150.53 144.531 151.318 143.733 151.861C142.934 152.405 141.978 152.677 140.865 152.677ZM140.865 150.353C141.624 150.353 142.231 149.971 142.684 149.207C143.137 148.443 143.362 147.297 143.357 145.769C143.357 144.763 143.254 143.926 143.047 143.257C142.844 142.588 142.555 142.085 142.179 141.748C141.808 141.412 141.37 141.243 140.865 141.243C140.109 141.243 139.505 141.621 139.052 142.376C138.599 143.132 138.37 144.263 138.366 145.769C138.366 146.788 138.467 147.638 138.67 148.32C138.877 148.998 139.168 149.507 139.544 149.848C139.919 150.184 140.36 150.353 140.865 150.353Z" fill="#1E1B39"/>
<path d="M44.4733 117.647V128.496H43.1596V117.647H44.4733ZM48.188 123.602V128.496H46.9379V120.36H48.1457V121.631H48.2516C48.4423 121.218 48.7319 120.886 49.1204 120.635C49.5088 120.381 50.0103 120.254 50.6248 120.254C51.1757 120.254 51.6578 120.367 52.071 120.593C52.4841 120.815 52.8055 121.154 53.0351 121.61C53.2646 122.062 53.3794 122.634 53.3794 123.326V128.496H52.1292V123.411C52.1292 122.772 51.9632 122.274 51.6313 121.917C51.2993 121.557 50.8437 121.377 50.2646 121.377C49.8655 121.377 49.5088 121.463 49.1945 121.636C48.8838 121.809 48.6383 122.062 48.4582 122.394C48.2781 122.726 48.188 123.128 48.188 123.602ZM58.9693 128.666C58.2065 128.666 57.5497 128.486 56.9987 128.125C56.4478 127.765 56.024 127.269 55.7274 126.637C55.4307 126.005 55.2824 125.283 55.2824 124.47C55.2824 123.644 55.4343 122.915 55.738 122.283C56.0452 121.647 56.4725 121.151 57.0199 120.794C57.5708 120.434 58.2136 120.254 58.9481 120.254C59.5202 120.254 60.0358 120.36 60.4949 120.572C60.954 120.783 61.3301 121.08 61.6233 121.461C61.9164 121.843 62.0983 122.288 62.1689 122.796H60.9187C60.8234 122.426 60.6115 122.097 60.2831 121.811C59.9582 121.522 59.5202 121.377 58.9693 121.377C58.482 121.377 58.0547 121.504 57.6874 121.758C57.3236 122.009 57.0394 122.364 56.8345 122.823C56.6332 123.278 56.5326 123.813 56.5326 124.428C56.5326 125.057 56.6315 125.604 56.8292 126.07C57.0305 126.536 57.313 126.898 57.6768 127.156C58.0441 127.414 58.4749 127.543 58.9693 127.543C59.2942 127.543 59.5891 127.486 59.854 127.373C60.1188 127.26 60.3431 127.098 60.5267 126.886C60.7104 126.674 60.841 126.42 60.9187 126.123H62.1689C62.0983 126.603 61.9234 127.036 61.6445 127.421C61.369 127.802 61.0035 128.106 60.5479 128.332C60.0959 128.555 59.5697 128.666 58.9693 128.666ZM67.3019 128.666C66.5674 128.666 65.9229 128.491 65.3684 128.141C64.8175 127.792 64.3867 127.303 64.0759 126.674C63.7687 126.045 63.615 125.311 63.615 124.47C63.615 123.623 63.7687 122.883 64.0759 122.251C64.3867 121.619 64.8175 121.128 65.3684 120.778C65.9229 120.429 66.5674 120.254 67.3019 120.254C68.0365 120.254 68.6792 120.429 69.2301 120.778C69.7846 121.128 70.2154 121.619 70.5227 122.251C70.8335 122.883 70.9888 123.623 70.9888 124.47C70.9888 125.311 70.8335 126.045 70.5227 126.674C70.2154 127.303 69.7846 127.792 69.2301 128.141C68.6792 128.491 68.0365 128.666 67.3019 128.666ZM67.3019 127.543C67.8599 127.543 68.319 127.4 68.6792 127.114C69.0394 126.828 69.3061 126.452 69.4791 125.985C69.6522 125.519 69.7387 125.014 69.7387 124.47C69.7387 123.926 69.6522 123.42 69.4791 122.95C69.3061 122.48 69.0394 122.101 68.6792 121.811C68.319 121.522 67.8599 121.377 67.3019 121.377C66.744 121.377 66.2849 121.522 65.9246 121.811C65.5644 122.101 65.2978 122.48 65.1248 122.95C64.9517 123.42 64.8652 123.926 64.8652 124.47C64.8652 125.014 64.9517 125.519 65.1248 125.985C65.2978 126.452 65.5644 126.828 65.9246 127.114C66.2849 127.4 66.744 127.543 67.3019 127.543ZM72.8972 128.496V120.36H74.105V121.631H74.2109C74.3804 121.197 74.6541 120.859 75.032 120.619C75.4099 120.376 75.8637 120.254 76.3934 120.254C76.9302 120.254 77.3769 120.376 77.7336 120.619C78.0938 120.859 78.3746 121.197 78.5759 121.631H78.6606C78.869 121.211 79.1815 120.877 79.5982 120.63C80.015 120.379 80.5147 120.254 81.0974 120.254C81.8249 120.254 82.4199 120.482 82.8825 120.937C83.3452 121.389 83.5765 122.094 83.5765 123.051V128.496H82.3263V123.051C82.3263 122.45 82.1621 122.021 81.8337 121.763C81.5053 121.506 81.1186 121.377 80.6736 121.377C80.1015 121.377 79.6583 121.55 79.344 121.896C79.0297 122.238 78.8725 122.673 78.8725 123.199V128.496H77.6012V122.924C77.6012 122.461 77.4511 122.088 77.1509 121.806C76.8507 121.52 76.464 121.377 75.9908 121.377C75.6659 121.377 75.3622 121.463 75.0797 121.636C74.8007 121.809 74.5747 122.049 74.4016 122.357C74.2321 122.66 74.1473 123.012 74.1473 123.411V128.496H72.8972ZM89.2737 128.666C88.4897 128.666 87.8134 128.493 87.2449 128.147C86.6798 127.797 86.2437 127.31 85.9364 126.685C85.6327 126.056 85.4809 125.325 85.4809 124.492C85.4809 123.658 85.6327 122.924 85.9364 122.288C86.2437 121.649 86.671 121.151 87.2184 120.794C87.7693 120.434 88.412 120.254 89.1466 120.254C89.5704 120.254 89.9888 120.324 90.402 120.466C90.8152 120.607 91.1913 120.836 91.5304 121.154C91.8694 121.469 92.1395 121.885 92.3408 122.404C92.5421 122.924 92.6428 123.563 92.6428 124.322V124.852H86.3708V123.771H91.3714C91.3714 123.312 91.2796 122.902 91.096 122.542C90.9159 122.182 90.6581 121.898 90.3226 121.689C89.9906 121.481 89.5986 121.377 89.1466 121.377C88.6486 121.377 88.2178 121.5 87.854 121.748C87.4938 121.991 87.2166 122.309 87.0224 122.701C86.8281 123.093 86.731 123.513 86.731 123.962V124.682C86.731 125.297 86.837 125.818 87.0489 126.245C87.2643 126.669 87.5627 126.992 87.9441 127.214C88.3255 127.433 88.7687 127.543 89.2737 127.543C89.6021 127.543 89.8988 127.497 90.1637 127.405C90.432 127.31 90.6634 127.168 90.8576 126.981C91.0518 126.791 91.2019 126.554 91.3079 126.271L92.5156 126.61C92.3885 127.02 92.1749 127.38 91.8747 127.691C91.5745 127.998 91.2037 128.238 90.7622 128.412C90.3208 128.581 89.8246 128.666 89.2737 128.666Z" fill="#9291A5"/>
<defs>
<filter id="filter0_d_168_7648" x="9.45164" y="84.662" width="432.597" height="328.148" filterUnits="userSpaceOnUse" color-interpolation-filters="sRGB">
<feFlood flood-opacity="0" result="BackgroundImageFix"/>
<feColorMatrix in="SourceAlpha" type="matrix" values="0 0 0 0 0 0 0 0 0 0 0 0 0 0 0 0 0 0 127 0" result="hardAlpha"/>
<feOffset dy="1.65746"/>
<feGaussianBlur stdDeviation="2.48619"/>
<feComposite in2="hardAlpha" operator="out"/>
<feColorMatrix type="matrix" values="0 0 0 0 0.0509804 0 0 0 0 0.0392157 0 0 0 0 0.172549 0 0 0 0.08 0"/>
<feBlend mode="normal" in2="BackgroundImageFix" result="effect1_dropShadow_168_7648"/>
<feBlend mode="normal" in="SourceGraphic" in2="effect1_dropShadow_168_7648" result="shape"/>
</filter>
<linearGradient id="paint0_linear_168_7648" x1="241.667" y1="219.624" x2="241.667" y2="345.239" gradientUnits="userSpaceOnUse">
<stop stop-color="#FBD7E0"/>
<stop offset="1" stop-color="#FFECED" stop-opacity="0"/>
</linearGradient>
</defs>
</svg>
