<svg width="28" height="38" viewBox="0 0 28 38" fill="none" xmlns="http://www.w3.org/2000/svg">
<g clip-path="url(#clip0_168_7592)">
<path d="M20.263 0.741231C16.8442 -0.166424 13.2183 0.0697511 9.94916 1.41302C6.68004 2.75629 3.95102 5.13134 2.1866 8.16874C0.422178 11.2061 -0.278718 14.7356 0.192932 18.2081C0.664583 21.6806 2.28234 24.9015 4.79456 27.3697L22.6809 9.6675C23.3497 9.00505 23.8306 8.18003 24.0752 7.27534C24.3198 6.37065 24.3196 5.41816 24.0746 4.51357C23.8296 3.60898 23.3483 2.78416 22.6793 2.12199C22.0102 1.45982 21.1769 0.983615 20.263 0.741231Z" fill="#EFECF1"/>
<path d="M6.84069 36.6619C10.2615 37.5724 13.8906 37.3377 17.1626 35.9943C20.4347 34.6508 23.1661 32.274 24.9316 29.2341C26.6971 26.1941 27.3974 22.6615 26.9237 19.1865C26.4499 15.7115 24.8286 12.4891 22.3122 10.0211L4.42588 27.7356C3.75708 28.3978 3.2761 29.2226 3.03127 30.1271C2.78644 31.0316 2.78637 31.984 3.03107 32.8885C3.27577 33.793 3.75663 34.6179 4.42534 35.2803C5.09405 35.9426 5.92706 36.4191 6.84069 36.6619Z" fill="white"/>
<path style="mix-blend-mode:multiply" d="M22.3122 10.0211L4.42588 27.7356C3.75708 28.3978 3.2761 29.2226 3.03127 30.1271C2.78644 31.0316 2.78637 31.984 3.03107 32.8885C3.27577 33.793 3.75663 34.6179 4.42534 35.2802C5.09405 35.9426 5.92706 36.4191 6.84069 36.6619C8.75336 37.1668 10.7436 37.3186 12.7119 37.1099C4.86917 29.6411 22.3122 10.0211 22.3122 10.0211Z" fill="white"/>
<g style="mix-blend-mode:multiply">
<path style="mix-blend-mode:multiply" d="M6.51249 36.5637C3.97368 28.782 19.222 13.1111 21.9127 10.4293L4.42627 27.7356C3.77796 28.3775 3.30576 29.1724 3.05434 30.0453C2.80292 30.9182 2.78058 31.8401 2.98943 32.7239C3.19829 33.6077 3.63144 34.4242 4.24791 35.0961C4.86439 35.768 5.64382 36.2731 6.51249 36.5637Z" fill="white"/>
<path style="mix-blend-mode:multiply" d="M22.254 10.0917C22.2726 10.0713 22.2922 10.0519 22.3129 10.0334L22.254 10.0917Z" fill="url(#paint0_linear_168_7592)"/>
</g>
<path style="mix-blend-mode:screen" d="M23.9927 7.56635L4.77342 27.3582L22.6815 9.66827C23.2796 9.07959 23.7289 8.35941 23.9927 7.56635Z" fill="url(#paint1_radial_168_7592)"/>
</g>
<defs>
<linearGradient id="paint0_linear_168_7592" x1="25.7258" y1="3.46999" x2="10.6477" y2="32.9144" gradientUnits="userSpaceOnUse">
<stop stop-color="#F3FBFB"/>
<stop offset="0.36" stop-color="#97C4C5"/>
<stop offset="0.8" stop-color="#E2EEEF"/>
<stop offset="1" stop-color="white"/>
</linearGradient>
<radialGradient id="paint1_radial_168_7592" cx="0" cy="0" r="1" gradientUnits="userSpaceOnUse" gradientTransform="translate(21.6461 32.5838) scale(27.8184 27.5367)">
<stop stop-color="#FFFF00"/>
<stop offset="1"/>
</radialGradient>
<clipPath id="clip0_168_7592">
<rect width="27" height="37" fill="white" transform="translate(0.0526733 0.202026)"/>
</clipPath>
</defs>
</svg>
