<svg width="152" height="38" viewBox="0 0 152 38" fill="none" xmlns="http://www.w3.org/2000/svg">
<g clip-path="url(#clip0_151_34584)">
<path d="M20.7093 1.29787C17.2906 0.390216 13.6646 0.626392 10.3955 1.96966C7.12639 3.31293 4.39737 5.68798 2.63295 8.72538C0.868529 11.7628 0.167632 15.2922 0.639283 18.7647C1.11093 22.2372 2.72869 25.4581 5.24091 27.9263L23.1272 10.2241C23.796 9.56169 24.2769 8.73667 24.5215 7.83198C24.7662 6.92729 24.766 5.9748 24.521 5.07021C24.2759 4.16562 23.7947 3.34081 23.1256 2.67863C22.4566 2.01646 21.6232 1.54026 20.7093 1.29787Z" fill="#8333C5"/>
<path d="M7.28704 37.2184C10.7079 38.129 14.3369 37.8942 17.609 36.5508C20.881 35.2073 23.6125 32.8306 25.3779 29.7906C27.1434 26.7506 27.8438 23.218 27.37 19.743C26.8963 16.268 25.275 13.0456 22.7586 10.5776L4.87223 28.2921C4.20343 28.9543 3.72245 29.7791 3.47762 30.6836C3.23279 31.5881 3.23272 32.5405 3.47742 33.445C3.72212 34.3496 4.20298 35.1744 4.87169 35.8368C5.5404 36.4991 6.37341 36.9756 7.28704 37.2184Z" fill="#8233C5"/>
<path style="mix-blend-mode:multiply" d="M22.7586 10.5776L4.87223 28.2921C4.20343 28.9543 3.72245 29.7791 3.47762 30.6836C3.23279 31.5881 3.23272 32.5405 3.47742 33.445C3.72212 34.3496 4.20298 35.1744 4.87169 35.8368C5.5404 36.4991 6.37341 36.9756 7.28704 37.2184C9.19971 37.7233 11.19 37.8752 13.1582 37.6664C5.31552 30.1976 22.7586 10.5776 22.7586 10.5776Z" fill="#8B3AD2"/>
<g style="mix-blend-mode:multiply">
<path style="mix-blend-mode:multiply" d="M6.95884 37.1203C4.42003 29.3386 19.6684 13.6677 22.3591 10.9858L4.87262 28.2922C4.22431 28.9341 3.75211 29.729 3.50069 30.6019C3.24927 31.4748 3.22693 32.3967 3.43578 33.2805C3.64464 34.1643 4.07779 34.9807 4.69426 35.6526C5.31074 36.3245 6.09017 36.8297 6.95884 37.1203Z" fill="#8B3AD2"/>
<path style="mix-blend-mode:multiply" d="M22.7003 10.6484C22.7189 10.628 22.7386 10.6085 22.7592 10.5901L22.7003 10.6484Z" fill="url(#paint0_linear_151_34584)"/>
</g>
<path style="mix-blend-mode:screen" d="M24.4391 8.12305L5.21977 27.9149L23.1278 10.225C23.726 9.6363 24.1753 8.91611 24.4391 8.12305Z" fill="url(#paint1_radial_151_34584)"/>
</g>
<path d="M48.339 27.5585C47.2724 27.5585 46.309 27.3719 45.449 26.9985C44.5957 26.6185 43.8924 26.0785 43.339 25.3785C42.7924 24.6719 42.4457 23.8319 42.299 22.8585L45.139 22.4385C45.339 23.2652 45.7524 23.9019 46.379 24.3485C47.0057 24.7952 47.719 25.0185 48.519 25.0185C48.9657 25.0185 49.399 24.9485 49.819 24.8085C50.239 24.6685 50.5824 24.4619 50.849 24.1885C51.1224 23.9152 51.259 23.5785 51.259 23.1785C51.259 23.0319 51.2357 22.8919 51.189 22.7585C51.149 22.6185 51.079 22.4885 50.979 22.3685C50.879 22.2485 50.7357 22.1352 50.549 22.0285C50.369 21.9219 50.139 21.8252 49.859 21.7385L46.119 20.6385C45.839 20.5585 45.5124 20.4452 45.139 20.2985C44.7724 20.1519 44.4157 19.9419 44.069 19.6685C43.7224 19.3952 43.4324 19.0352 43.199 18.5885C42.9724 18.1352 42.859 17.5652 42.859 16.8785C42.859 15.9119 43.1024 15.1085 43.589 14.4685C44.0757 13.8285 44.7257 13.3519 45.539 13.0385C46.3524 12.7252 47.2524 12.5719 48.239 12.5785C49.2324 12.5919 50.119 12.7619 50.899 13.0885C51.679 13.4152 52.3324 13.8919 52.859 14.5185C53.3857 15.1385 53.7657 15.8985 53.999 16.7985L51.059 17.2985C50.9524 16.8319 50.7557 16.4385 50.469 16.1185C50.1824 15.7985 49.839 15.5552 49.439 15.3885C49.0457 15.2219 48.6324 15.1319 48.199 15.1185C47.7724 15.1052 47.369 15.1652 46.989 15.2985C46.6157 15.4252 46.309 15.6119 46.069 15.8585C45.8357 16.1052 45.719 16.3985 45.719 16.7385C45.719 17.0519 45.8157 17.3085 46.009 17.5085C46.2024 17.7019 46.4457 17.8585 46.739 17.9785C47.0324 18.0985 47.3324 18.1985 47.639 18.2785L50.139 18.9585C50.5124 19.0585 50.9257 19.1919 51.379 19.3585C51.8324 19.5185 52.2657 19.7452 52.679 20.0385C53.099 20.3252 53.4424 20.7052 53.709 21.1785C53.9824 21.6519 54.119 22.2519 54.119 22.9785C54.119 23.7519 53.9557 24.4285 53.629 25.0085C53.309 25.5819 52.8757 26.0585 52.329 26.4385C51.7824 26.8119 51.1624 27.0919 50.469 27.2785C49.7824 27.4652 49.0724 27.5585 48.339 27.5585ZM56.517 27.2585V12.5585H59.237V27.2585H56.517ZM62.435 14.9585V12.5585H65.155V14.9585H62.435ZM62.435 27.2585V16.4585H65.155V27.2585H62.435ZM72.9129 27.5585C71.7929 27.5585 70.8329 27.3085 70.0329 26.8085C69.2329 26.3085 68.6196 25.6285 68.1929 24.7685C67.7663 23.9085 67.5529 22.9385 67.5529 21.8585C67.5529 20.7652 67.7729 19.7885 68.2129 18.9285C68.6596 18.0685 69.2863 17.3919 70.0929 16.8985C70.8996 16.4052 71.8529 16.1585 72.9529 16.1585C74.2263 16.1585 75.2929 16.4819 76.1529 17.1285C77.0196 17.7685 77.5729 18.6452 77.8129 19.7585L75.0929 20.4785C74.9329 19.9185 74.6529 19.4819 74.2529 19.1685C73.8596 18.8552 73.4129 18.6985 72.9129 18.6985C72.3396 18.6985 71.8696 18.8385 71.5029 19.1185C71.1363 19.3919 70.8663 19.7685 70.6929 20.2485C70.5196 20.7219 70.4329 21.2585 70.4329 21.8585C70.4329 22.7985 70.6396 23.5619 71.0529 24.1485C71.4729 24.7285 72.0929 25.0185 72.9129 25.0185C73.5263 25.0185 73.9929 24.8785 74.3129 24.5985C74.6329 24.3185 74.8729 23.9185 75.0329 23.3985L77.8129 23.9785C77.5063 25.1252 76.9263 26.0085 76.0729 26.6285C75.2196 27.2485 74.1663 27.5585 72.9129 27.5585ZM79.7931 27.2585L79.8131 12.8585H82.5731V21.6585L86.2331 16.4585H89.5931L85.6931 21.8585L89.8531 27.2585H86.3131L82.5731 22.0585V27.2585H79.7931ZM91.0482 27.2585V12.8585H93.7682V27.2585H91.0482ZM104.126 27.2585V22.1585C104.126 21.9119 104.113 21.5985 104.086 21.2185C104.06 20.8319 103.976 20.4452 103.836 20.0585C103.696 19.6719 103.466 19.3485 103.146 19.0885C102.833 18.8285 102.386 18.6985 101.806 18.6985C101.573 18.6985 101.323 18.7352 101.056 18.8085C100.79 18.8819 100.54 19.0252 100.306 19.2385C100.073 19.4452 99.8795 19.7519 99.7262 20.1585C99.5795 20.5652 99.5062 21.1052 99.5062 21.7785L97.9462 21.0385C97.9462 20.1852 98.1195 19.3852 98.4662 18.6385C98.8129 17.8919 99.3329 17.2885 100.026 16.8285C100.726 16.3685 101.606 16.1385 102.666 16.1385C103.513 16.1385 104.203 16.2819 104.736 16.5685C105.27 16.8552 105.683 17.2185 105.976 17.6585C106.276 18.0985 106.49 18.5585 106.616 19.0385C106.743 19.5119 106.82 19.9452 106.846 20.3385C106.873 20.7319 106.886 21.0185 106.886 21.1985V27.2585H104.126ZM96.7462 27.2585V16.4585H99.1662V20.0385H99.5062V27.2585H96.7462ZM112.401 27.2585L108.481 16.4585H111.201L113.761 23.9385L116.321 16.4585H119.041L115.121 27.2585H112.401ZM125.478 27.5585C124.371 27.5585 123.394 27.3219 122.548 26.8485C121.708 26.3685 121.048 25.7119 120.568 24.8785C120.094 24.0385 119.858 23.0785 119.858 21.9985C119.858 20.8185 120.091 19.7919 120.558 18.9185C121.024 18.0452 121.668 17.3685 122.488 16.8885C123.308 16.4019 124.251 16.1585 125.318 16.1585C126.451 16.1585 127.414 16.4252 128.208 16.9585C129.001 17.4919 129.588 18.2419 129.968 19.2085C130.348 20.1752 130.481 21.3119 130.368 22.6185H127.678V21.6185C127.678 20.5185 127.501 19.7285 127.148 19.2485C126.801 18.7619 126.231 18.5185 125.438 18.5185C124.511 18.5185 123.828 18.8019 123.388 19.3685C122.954 19.9285 122.738 20.7585 122.738 21.8585C122.738 22.8652 122.954 23.6452 123.388 24.1985C123.828 24.7452 124.471 25.0185 125.318 25.0185C125.851 25.0185 126.308 24.9019 126.688 24.6685C127.068 24.4352 127.358 24.0985 127.558 23.6585L130.278 24.4385C129.871 25.4252 129.228 26.1919 128.348 26.7385C127.474 27.2852 126.518 27.5585 125.478 27.5585ZM121.898 22.6185V20.5985H129.058V22.6185H121.898ZM136.846 27.5585C135.486 27.5585 134.386 27.2519 133.546 26.6385C132.712 26.0185 132.206 25.1452 132.026 24.0185L134.806 23.5985C134.919 24.1052 135.169 24.5019 135.556 24.7885C135.949 25.0752 136.446 25.2185 137.046 25.2185C137.539 25.2185 137.919 25.1252 138.186 24.9385C138.452 24.7452 138.586 24.4785 138.586 24.1385C138.586 23.9252 138.532 23.7552 138.426 23.6285C138.319 23.4952 138.079 23.3652 137.706 23.2385C137.339 23.1119 136.766 22.9452 135.986 22.7385C135.106 22.5119 134.402 22.2585 133.876 21.9785C133.349 21.6985 132.969 21.3652 132.736 20.9785C132.502 20.5852 132.386 20.1119 132.386 19.5585C132.386 18.8652 132.562 18.2652 132.916 17.7585C133.269 17.2452 133.766 16.8519 134.406 16.5785C135.052 16.2985 135.812 16.1585 136.686 16.1585C137.532 16.1585 138.282 16.2885 138.936 16.5485C139.589 16.8085 140.116 17.1785 140.516 17.6585C140.922 18.1385 141.172 18.7052 141.266 19.3585L138.486 19.8585C138.439 19.4585 138.266 19.1419 137.966 18.9085C137.666 18.6752 137.259 18.5385 136.746 18.4985C136.246 18.4652 135.842 18.5319 135.536 18.6985C135.236 18.8652 135.086 19.1052 135.086 19.4185C135.086 19.6052 135.149 19.7619 135.276 19.8885C135.409 20.0152 135.679 20.1452 136.086 20.2785C136.499 20.4119 137.126 20.5852 137.966 20.7985C138.786 21.0119 139.442 21.2619 139.936 21.5485C140.436 21.8285 140.799 22.1685 141.026 22.5685C141.252 22.9619 141.366 23.4385 141.366 23.9985C141.366 25.1052 140.966 25.9752 140.166 26.6085C139.366 27.2419 138.259 27.5585 136.846 27.5585ZM150.043 27.2585C149.296 27.3985 148.563 27.4585 147.843 27.4385C147.13 27.4252 146.49 27.3019 145.923 27.0685C145.363 26.8285 144.936 26.4452 144.643 25.9185C144.376 25.4252 144.236 24.9252 144.223 24.4185C144.21 23.9052 144.203 23.3252 144.203 22.6785V13.4585H146.923V22.5185C146.923 22.9385 146.926 23.3185 146.933 23.6585C146.946 23.9919 147.016 24.2585 147.143 24.4585C147.383 24.8385 147.766 25.0452 148.293 25.0785C148.82 25.1119 149.403 25.0852 150.043 24.9985V27.2585ZM142.363 18.5585V16.4585H150.043V18.5585H142.363Z" fill="#902A9C"/>
<defs>
<linearGradient id="paint0_linear_151_34584" x1="26.1722" y1="4.02663" x2="11.0941" y2="33.4711" gradientUnits="userSpaceOnUse">
<stop stop-color="#F3FBFB"/>
<stop offset="0.36" stop-color="#97C4C5"/>
<stop offset="0.8" stop-color="#E2EEEF"/>
<stop offset="1" stop-color="white"/>
</linearGradient>
<radialGradient id="paint1_radial_151_34584" cx="0" cy="0" r="1" gradientUnits="userSpaceOnUse" gradientTransform="translate(22.0925 33.1405) scale(27.8184 27.5367)">
<stop stop-color="#FFFF00"/>
<stop offset="1"/>
</radialGradient>
<clipPath id="clip0_151_34584">
<rect width="27" height="37" fill="white" transform="translate(0.499023 0.758545)"/>
</clipPath>
</defs>
</svg>
