<svg width="28" height="38" viewBox="0 0 28 38" fill="none" xmlns="http://www.w3.org/2000/svg">
<g clip-path="url(#clip0_518_6536)">
<path d="M20.263 0.7412C16.8443 -0.166455 13.2183 0.0697206 9.94922 1.41299C6.6801 2.75626 3.95108 5.13131 2.18666 8.16871C0.422239 11.2061 -0.278657 14.7356 0.192993 18.2081C0.664644 21.6806 2.2824 24.9014 4.79462 27.3697V27.3697L22.681 9.66747C23.3497 9.00502 23.8306 8.18 24.0753 7.27531C24.3199 6.37062 24.3197 5.41813 24.0747 4.51354C23.8296 3.60895 23.3484 2.78413 22.6793 2.12196C22.0103 1.45979 21.1769 0.983584 20.263 0.7412V0.7412Z" fill="#8333C5"/>
<path d="M6.84075 36.6618C10.2616 37.5724 13.8906 37.3377 17.1627 35.9942C20.4347 34.6508 23.1662 32.274 24.9316 29.234C26.6971 26.194 27.3975 22.6615 26.9237 19.1865C26.45 15.7115 24.8287 12.4891 22.3123 10.0211L4.42594 27.7356C3.75714 28.3978 3.27616 29.2226 3.03133 30.1271C2.7865 31.0316 2.78643 31.9839 3.03113 32.8885C3.27583 33.793 3.75669 34.6179 4.4254 35.2802C5.09411 35.9426 5.92712 36.4191 6.84075 36.6618V36.6618Z" fill="#8233C5"/>
<path style="mix-blend-mode:multiply" d="M22.3123 10.0211L4.42594 27.7356C3.75714 28.3978 3.27616 29.2226 3.03133 30.1271C2.7865 31.0316 2.78643 31.9839 3.03113 32.8885C3.27583 33.793 3.75669 34.6179 4.4254 35.2802C5.09411 35.9426 5.92712 36.419 6.84075 36.6618C8.75342 37.1667 10.7437 37.3186 12.7119 37.1098C4.86923 29.6411 22.3123 10.0211 22.3123 10.0211Z" fill="#8B3AD2"/>
<g style="mix-blend-mode:multiply">
<path style="mix-blend-mode:multiply" d="M6.51266 36.5637C3.97385 28.782 19.2222 13.1111 21.9129 10.4293L4.42644 27.7356C3.77812 28.3775 3.30593 29.1724 3.05451 30.0453C2.80309 30.9182 2.78075 31.8401 2.9896 32.7239C3.19846 33.6077 3.63161 34.4241 4.24808 35.0961C4.86456 35.768 5.64399 36.2731 6.51266 36.5637V36.5637Z" fill="#8B3AD2"/>
<path style="mix-blend-mode:multiply" d="M22.2542 10.0917C22.2727 10.0713 22.2924 10.0518 22.313 10.0334V10.0334L22.2542 10.0917Z" fill="url(#paint0_linear_518_6536)"/>
</g>
<path style="mix-blend-mode:screen" d="M23.9927 7.56635L4.77344 27.3582L22.6815 9.66827C23.2797 9.07959 23.7289 8.35941 23.9927 7.56635V7.56635Z" fill="url(#paint1_radial_518_6536)"/>
</g>
<defs>
<linearGradient id="paint0_linear_518_6536" x1="25.726" y1="3.46996" x2="10.6479" y2="32.9144" gradientUnits="userSpaceOnUse">
<stop stop-color="#F3FBFB"/>
<stop offset="0.36" stop-color="#97C4C5"/>
<stop offset="0.8" stop-color="#E2EEEF"/>
<stop offset="1" stop-color="white"/>
</linearGradient>
<radialGradient id="paint1_radial_518_6536" cx="0" cy="0" r="1" gradientUnits="userSpaceOnUse" gradientTransform="translate(21.6461 32.5838) scale(27.8184 27.5367)">
<stop stop-color="#FFFF00"/>
<stop offset="1"/>
</radialGradient>
<clipPath id="clip0_518_6536">
<rect width="27" height="37" fill="white" transform="translate(0.0527344 0.201996)"/>
</clipPath>
</defs>
</svg>
